<?xml version="1.0" standalone="no"?>
<!DOCTYPE svg PUBLIC "-//W3C//DTD SVG 20010904//EN"
 "http://www.w3.org/TR/2001/REC-SVG-20010904/DTD/svg10.dtd">
<svg version="1.0" xmlns="http://www.w3.org/2000/svg"
 width="280.000000pt" height="280.000000pt" viewBox="0 0 280.000000 280.000000"
 preserveAspectRatio="xMidYMid meet">
<metadata>
Created by potrace 1.14, written by Peter Selinger 2001-2017
</metadata>
<g transform="translate(0.000000,280.000000) scale(0.100000,-0.100000)"
fill="#000000" stroke="none">
<path d="M1448 2653 c18 -2 45 -2 60 0 15 2 0 4 -33 4 -33 0 -45 -2 -27 -4z"/>
<path d="M1377 2633 c-3 -5 -1 -27 4 -49 19 -75 41 -179 43 -211 1 -12 4 -25
7 -28 7 -6 2 -88 -12 -185 -5 -41 -13 -97 -16 -125 -3 -27 -10 -56 -17 -64 -8
-10 -11 -156 -11 -525 l0 -511 -60 3 c-153 6 -205 3 -252 -18 -97 -43 -98 -43
-178 -109 -26 -21 -59 -68 -87 -123 -30 -59 -31 -65 -25 -152 3 -50 13 -112
22 -138 46 -131 218 -216 377 -188 75 14 132 38 173 74 17 14 32 26 36 26 8 0
83 110 97 144 7 16 15 26 17 24 7 -6 -23 -66 -51 -105 -13 -17 -24 -35 -24
-39 0 -4 -21 -27 -47 -51 -27 -24 -39 -40 -28 -34 31 14 153 135 165 162 5 13
14 31 18 39 20 35 30 58 45 110 20 65 36 167 31 194 -2 10 -6 96 -9 190 -4 94
-9 185 -13 201 -3 17 -7 200 -9 408 -3 333 -2 377 12 377 8 0 20 9 27 20 9 13
24 20 45 20 20 0 33 5 33 13 0 9 2 9 8 1 4 -7 21 -14 37 -15 17 -2 36 -10 43
-16 7 -7 20 -13 28 -13 8 0 14 -4 14 -10 0 -5 9 -18 21 -29 11 -10 27 -38 34
-62 8 -24 14 -37 14 -28 1 9 -4 30 -10 48 -16 45 -3 51 15 8 19 -46 33 -197
18 -197 -6 0 -13 19 -15 43 -3 31 -3 29 -2 -8 2 -27 5 -63 8 -80 3 -16 1 -37
-3 -45 -4 -8 -9 -31 -11 -50 -2 -19 -7 -41 -12 -47 -6 -8 -6 -13 1 -13 6 0 13
4 16 9 3 5 23 3 43 -5 21 -7 48 -13 61 -14 12 0 22 -5 22 -11 0 -5 5 -7 10 -4
5 3 10 11 10 16 0 6 -5 7 -10 4 -13 -8 -13 11 -1 34 18 32 36 218 23 235 -4 6
-10 29 -11 51 -2 22 -10 45 -19 52 -16 11 -15 12 3 13 l20 1 -20 9 c-17 7 -17
9 -2 9 9 1 17 5 17 10 0 9 -30 25 -42 23 -5 -1 -8 5 -8 13 0 8 3 14 8 13 12
-2 42 14 42 23 0 5 -7 9 -15 9 -15 0 -17 20 -3 31 15 10 -42 151 -75 188 -12
13 -44 41 -70 62 -45 36 -56 56 -13 24 11 -8 24 -15 29 -15 6 0 -37 36 -96 80
-109 82 -213 180 -227 215 -7 17 -9 17 -9 3 -1 -10 -5 -18 -11 -18 -13 0 -13
23 1 37 6 6 9 23 7 39 l-3 29 -86 3 c-48 2 -89 -1 -92 -5z m203 -143 c6 -11 8
-20 6 -20 -3 0 -10 9 -16 20 -6 11 -8 20 -6 20 3 0 10 -9 16 -20z m220 -187
c0 -7 -39 17 -46 28 -3 6 5 3 20 -6 14 -10 26 -19 26 -22z m-245 -113 c3 -5 1
-10 -4 -10 -6 0 -11 5 -11 10 0 6 2 10 4 10 3 0 8 -4 11 -10z m55 -46 c0 -2
-9 0 -20 6 -11 6 -20 13 -20 16 0 2 9 0 20 -6 11 -6 20 -13 20 -16z m260 -229
c0 -4 -9 4 -20 18 -11 14 -20 28 -20 32 0 4 9 -4 20 -18 11 -14 20 -28 20 -32z
m-333 -1262 c-3 -10 -5 -4 -5 12 0 17 2 24 5 18 2 -7 2 -21 0 -30z m0 -45 c-3
-8 -6 -5 -6 6 -1 11 2 17 5 13 3 -3 4 -12 1 -19z m-10 -50 c-3 -7 -5 -2 -5 12
0 14 2 19 5 13 2 -7 2 -19 0 -25z m-10 -40 c-3 -8 -6 -5 -6 6 -1 11 2 17 5 13
3 -3 4 -12 1 -19z"/>
<path d="M1910 2236 c0 -2 7 -9 15 -16 13 -11 14 -10 9 4 -5 14 -24 23 -24 12z"/>
<path d="M1354 1665 c0 -93 2 -133 3 -88 2 45 2 122 0 170 -1 48 -3 12 -3 -82z"/>
<path d="M1875 1580 c-4 -28 -5 -54 -2 -56 3 -3 8 18 12 46 4 28 5 54 2 56 -3
3 -8 -18 -12 -46z"/>
<path d="M1925 1455 c17 -8 41 -14 55 -14 18 0 12 5 -20 15 -56 17 -75 17 -35
-1z"/>
</g>
</svg>
