<svg width="64" height="64" viewBox="0 0 64 64" fill="none" xmlns="http://www.w3.org/2000/svg">
<g id="apple" clip-path="url(#clip0_6_110)">
<ellipse id="Ellipse 13" cx="32" cy="59" rx="24" ry="5" fill="#C4DAEE"/>
<path id="Ellipse 4" d="M61 35.955C61 51.9713 48.0163 60.955 32 60.955C15.9837 60.955 3 51.9713 3 35.955C3 19.9387 12 10.455 32 15.9549C50 9.45496 61 19.9387 61 35.955Z" fill="#FF6F50"/>
<path id="Ellipse 10" d="M45.3904 0.501232C45.3904 0.501232 46.0432 7.12277 42.3472 11.001C38.6512 14.8792 32.0059 14.5455 32.0059 14.5455C31.641 14.1978 31.3531 7.92398 35.0491 4.04576C38.7451 0.167533 45.3904 0.501232 45.3904 0.501232Z" fill="#56D053"/>
<path id="Ellipse 12" d="M39.6757 56.3756C36.5902 59.4475 19.0395 59 11.6537 51.5816C4.2679 44.1632 4.32713 30.6589 7.41264 27.587C10.4982 24.515 15.4006 38.5113 22.7864 45.9297C30.1722 53.3481 42.7612 53.3036 39.6757 56.3756Z" fill="#EB5B3C"/>
</g>
<defs>
<clipPath id="clip0_6_110">
<rect width="64" height="64" fill="white"/>
</clipPath>
</defs>
</svg>
