<svg width="64" height="64" viewBox="0 0 64 64" fill="none" xmlns="http://www.w3.org/2000/svg">
<g id="banana" clip-path="url(#clip0_6_121)">
<ellipse id="Ellipse 13" cx="32" cy="59" rx="24" ry="5" fill="#C4DAEE"/>
<path id="Vector 1" d="M3.04431 3.50367C37.0391 57.6359 73.8547 56.237 58.3493 59.6408C17.2511 68.6629 1.55474 30.6164 2.22801 9.01715L0 3.50367L3.04431 2V3.50367Z" fill="#FFE600"/>
<path id="Vector 4" d="M4.18779 4.43078C47.2749 32.9104 72.5469 14.5739 63.0087 24.2129C37.7269 49.7619 11.9133 26.8425 4.6047 9.1455L0.761604 4.50438L3.24515 2.08918L4.18779 4.43078Z" fill="#FFE500"/>
<path id="Vector 2" d="M2 3C6.95518 20.6667 26.0924 56 63 56C47.451 49 13.4824 28.6 2 3Z" fill="#FFF065"/>
<path id="Vector 5" d="M1.60602 2.69299C11.9838 15.8076 39.2762 37.848 65.4237 21.0925C51.6869 22.0639 19.6918 19.7438 1.60602 2.69299Z" fill="#FFF065"/>
<path id="Vector 3" d="M62.4546 56.2306L58.1136 53.7463L56.2474 56.8216L57.1441 60.2969C59.5095 59.5688 62.6478 58.525 62.4638 57.7217L62.4546 56.2306Z" fill="#426280"/>
<path id="Vector 6" d="M64.8776 20.8131L61.0466 21.1524L60.636 23.5206L62.2143 25.0302C63.6186 23.7229 64.7307 22.1911 65.1112 21.5887L64.8776 20.8131Z" fill="#426280"/>
</g>
<defs>
<clipPath id="clip0_6_121">
<rect width="64" height="64" fill="white"/>
</clipPath>
</defs>
</svg>
