<svg width="438" height="52" viewBox="0 0 438 52" fill="none" xmlns="http://www.w3.org/2000/svg">
<path d="M48.9953 51.3297H4.80346C3.5295 51.3297 2.30772 50.8237 1.4069 49.9228C0.506073 49.022 0 47.8002 0 46.5263V4.80346C0 3.5295 0.506073 2.30772 1.4069 1.4069C2.30772 0.506073 3.5295 0 4.80346 0H48.9953C50.2692 0 51.491 0.506073 52.3918 1.4069C53.2926 2.30772 53.7987 3.5295 53.7987 4.80346V46.5263C53.7987 47.8002 53.2926 49.022 52.3918 49.9228C51.491 50.8237 50.2692 51.3297 48.9953 51.3297Z" fill="#797979"/>
<path d="M1.64282 1.20379C2.52032 0.439531 3.64112 0.0143505 4.8035 0.004776H48.9953C50.2693 0.004776 51.491 0.512103 52.3919 1.41515C53.2927 2.31819 53.7988 3.54297 53.7988 4.82007V46.6457C53.7649 47.8984 53.2784 49.0962 52.4298 50.0164L1.64282 1.20379Z" fill="#B9B9B9"/>
<path d="M41.4586 6.19162H11.4706C8.9504 6.19162 6.90735 8.23467 6.90735 10.7549V40.7429C6.90735 43.2631 8.9504 45.3062 11.4706 45.3062H41.4586C43.9788 45.3062 46.0219 43.2631 46.0219 40.7429V10.7549C46.0219 8.23467 43.9788 6.19162 41.4586 6.19162Z" fill="#989898"/>
<path d="M25.9208 34.8683V20.8763C25.4088 21.3083 24.6408 21.7723 23.6168 22.2683V21.4283C24.2088 20.9163 24.7208 20.3963 25.1528 19.8683C25.5848 19.3403 25.9368 18.8043 26.2088 18.2603H26.6408C26.9128 18.8043 27.2648 19.3403 27.6968 19.8683C28.1288 20.3963 28.6408 20.9163 29.2328 21.4283V22.2683C28.7368 22.0283 28.2968 21.7963 27.9128 21.5723C27.5288 21.3323 27.2008 21.1003 26.9288 20.8763V34.8683H25.9208Z" fill="white"/>
<path d="M103.794 51.3297H59.6022C58.3282 51.3297 57.1064 50.8237 56.2056 49.9228C55.3048 49.022 54.7987 47.8002 54.7987 46.5263V4.80346C54.7987 3.5295 55.3048 2.30772 56.2056 1.4069C57.1064 0.506073 58.3282 0 59.6022 0H103.794C105.068 0 106.29 0.506073 107.191 1.4069C108.091 2.30772 108.597 3.5295 108.597 4.80346V46.5263C108.597 47.8002 108.091 49.022 107.191 49.9228C106.29 50.8237 105.068 51.3297 103.794 51.3297Z" fill="#797979"/>
<path d="M56.4415 1.2038C57.319 0.439546 58.4398 0.0143658 59.6022 0.00479126H103.794C105.068 0.00479126 106.29 0.512119 107.191 1.41516C108.091 2.3182 108.597 3.54299 108.597 4.82008V46.6457C108.564 47.8984 108.077 49.0962 107.228 50.0164L56.4415 1.2038Z" fill="#B9B9B9"/>
<path d="M96.2574 6.19162H66.2695C63.7492 6.19162 61.7062 8.23467 61.7062 10.7549V40.7429C61.7062 43.2631 63.7492 45.3062 66.2695 45.3062H96.2574C98.7777 45.3062 100.821 43.2631 100.821 40.7429V10.7549C100.821 8.23467 98.7777 6.19162 96.2574 6.19162Z" fill="#989898"/>
<path d="M75.5634 28.8785C75.033 28.2455 74.4855 27.698 73.9209 27.236C73.3562 26.774 72.7745 26.3976 72.1757 26.1067V25.6448C73.3562 25.0459 74.4855 24.122 75.5634 22.873H76.4617C76.1879 23.4547 75.9142 23.968 75.6404 24.4129C75.3667 24.8406 75.1015 25.1999 74.8448 25.4908V26.2607C75.1015 26.5345 75.3667 26.8938 75.6404 27.3387C75.9142 27.7664 76.1879 28.2797 76.4617 28.8785H75.5634ZM74.7165 26.4147V25.3368H89.9357V26.4147H74.7165Z" fill="white"/>
<path d="M158.593 51.3297H114.401C113.127 51.3297 111.905 50.8237 111.004 49.9228C110.103 49.022 109.597 47.8002 109.597 46.5263V4.80346C109.597 3.5295 110.103 2.30772 111.004 1.4069C111.905 0.506073 113.127 0 114.401 0H158.593C159.867 0 161.088 0.506073 161.989 1.4069C162.89 2.30772 163.396 3.5295 163.396 4.80346V46.5263C163.396 47.8002 162.89 49.022 161.989 49.9228C161.088 50.8237 159.867 51.3297 158.593 51.3297Z" fill="#797979"/>
<path d="M111.24 1.20376C112.118 0.4395 113.239 0.01432 114.401 0.00474548H158.593C159.867 0.00474548 161.088 0.512073 161.989 1.41512C162.89 2.31816 163.396 3.54294 163.396 4.82004V46.6456C163.362 47.8984 162.876 49.0962 162.027 50.0164L111.24 1.20376Z" fill="#B9B9B9"/>
<path d="M151.056 6.19157H121.068C118.548 6.19157 116.505 8.23463 116.505 10.7549V40.7428C116.505 43.2631 118.548 45.3061 121.068 45.3061H151.056C153.576 45.3061 155.619 43.2631 155.619 40.7428V10.7549C155.619 8.23463 153.576 6.19157 151.056 6.19157Z" fill="#989898"/>
<path d="M135.863 34.6531C135.281 33.4383 134.357 32.3091 133.091 31.2654V30.3671C133.638 30.6238 134.118 30.8804 134.528 31.1371C134.939 31.3766 135.281 31.6161 135.555 31.8557V16.8931H136.633V31.8557C136.924 31.6161 137.274 31.3766 137.685 31.1371C138.096 30.8804 138.566 30.6238 139.096 30.3671V31.2654C137.847 32.3091 136.924 33.4383 136.325 34.6531H135.863Z" fill="white"/>
<path d="M213.391 51.3297H169.2C167.926 51.3297 166.704 50.8237 165.803 49.9228C164.902 49.022 164.396 47.8002 164.396 46.5263V4.80346C164.396 3.5295 164.902 2.30772 165.803 1.4069C166.704 0.506073 167.926 0 169.2 0H213.391C214.665 0 215.887 0.506073 216.788 1.4069C217.689 2.30772 218.195 3.5295 218.195 4.80346V46.5263C218.195 47.8002 217.689 49.022 216.788 49.9228C215.887 50.8237 214.665 51.3297 213.391 51.3297Z" fill="#797979"/>
<path d="M166.039 1.20376C166.916 0.4395 168.037 0.01432 169.2 0.00474548H213.391C214.665 0.00474548 215.887 0.512073 216.788 1.41512C217.689 2.31816 218.195 3.54294 218.195 4.82004V46.6456C218.161 47.8984 217.675 49.0962 216.826 50.0164L166.039 1.20376Z" fill="#B9B9B9"/>
<path d="M205.855 6.19157H175.867C173.347 6.19157 171.303 8.23463 171.303 10.7549V40.7428C171.303 43.2631 173.347 45.3061 175.867 45.3061H205.855C208.375 45.3061 210.418 43.2631 210.418 40.7428V10.7549C210.418 8.23463 208.375 6.19157 205.855 6.19157Z" fill="#989898"/>
<path d="M196.528 28.8785C196.784 28.331 197.032 27.8519 197.272 27.4413C197.529 27.0307 197.777 26.6885 198.016 26.4147H183.054V25.3368H198.016C197.777 25.0459 197.529 24.6952 197.272 24.2845C197.032 23.8739 196.784 23.4034 196.528 22.873H197.426C198.504 24.122 199.633 25.0459 200.814 25.6448V26.1067C199.633 26.6885 198.504 27.6124 197.426 28.8785H196.528Z" fill="white"/>
<path d="M268.19 51.3297H223.998C222.724 51.3297 221.503 50.8237 220.602 49.9228C219.701 49.022 219.195 47.8002 219.195 46.5263V4.80346C219.195 3.5295 219.701 2.30772 220.602 1.4069C221.503 0.506073 222.724 0 223.998 0H268.19C269.464 0 270.686 0.506073 271.587 1.4069C272.487 2.30772 272.994 3.5295 272.994 4.80346V46.5263C272.994 47.8002 272.487 49.022 271.587 49.9228C270.686 50.8237 269.464 51.3297 268.19 51.3297Z" fill="#7B7B7B"/>
<path d="M220.838 1.20379C221.715 0.439531 222.836 0.0143505 223.998 0.004776H268.19C269.464 0.004776 270.686 0.512103 271.587 1.41515C272.488 2.31819 272.994 3.54297 272.994 4.82007V46.6457C272.96 47.8984 272.473 49.0962 271.625 50.0164L220.838 1.20379Z" fill="#AAAAAA"/>
<path d="M260.653 6.19162H230.665C228.145 6.19162 226.102 8.23467 226.102 10.7549V40.7429C226.102 43.2631 228.145 45.3062 230.665 45.3062H260.653C263.174 45.3062 265.217 43.2631 265.217 40.7429V10.7549C265.217 8.23467 263.174 6.19162 260.653 6.19162Z" fill="#8E8E8E"/>
<path d="M322.989 51.3297H278.797C277.523 51.3297 276.301 50.8237 275.4 49.9228C274.5 49.022 273.994 47.8002 273.994 46.5263V4.80346C273.994 3.5295 274.5 2.30772 275.4 1.4069C276.301 0.506073 277.523 0 278.797 0H322.989C324.263 0 325.485 0.506073 326.385 1.4069C327.286 2.30772 327.792 3.5295 327.792 4.80346V46.5263C327.792 47.8002 327.286 49.022 326.385 49.9228C325.485 50.8237 324.263 51.3297 322.989 51.3297Z" fill="#7B7B7B"/>
<path d="M275.636 1.2038C276.514 0.439546 277.635 0.0143658 278.797 0.00479126H322.989C324.263 0.00479126 325.485 0.512119 326.385 1.41516C327.286 2.3182 327.792 3.54299 327.792 4.82008V46.6457C327.758 47.8984 327.272 49.0962 326.423 50.0164L275.636 1.2038Z" fill="#AAAAAA"/>
<path d="M315.452 6.19162H285.464C282.944 6.19162 280.901 8.23467 280.901 10.7549V40.7429C280.901 43.2631 282.944 45.3062 285.464 45.3062H315.452C317.972 45.3062 320.016 43.2631 320.016 40.7429V10.7549C320.016 8.23467 317.972 6.19162 315.452 6.19162Z" fill="#8E8E8E"/>
<path d="M294.758 28.8785C294.228 28.2455 293.68 27.698 293.116 27.236C292.551 26.774 291.969 26.3976 291.37 26.1067V25.6448C292.551 25.0459 293.68 24.122 294.758 22.873H295.657C295.383 23.4547 295.109 23.968 294.835 24.4129C294.561 24.8406 294.296 25.1999 294.04 25.4908V26.2607C294.296 26.5345 294.561 26.8938 294.835 27.3387C295.109 27.7664 295.383 28.2797 295.657 28.8785H294.758ZM293.911 26.4147V25.3368H309.131V26.4147H293.911Z" fill="#EDEDED"/>
<path d="M377.787 51.3297H333.596C332.322 51.3297 331.1 50.8237 330.199 49.9228C329.298 49.022 328.792 47.8002 328.792 46.5263V4.80346C328.792 3.5295 329.298 2.30772 330.199 1.4069C331.1 0.506073 332.322 0 333.596 0H377.787C379.061 0 380.283 0.506073 381.184 1.4069C382.085 2.30772 382.591 3.5295 382.591 4.80346V46.5263C382.591 47.8002 382.085 49.022 381.184 49.9228C380.283 50.8237 379.061 51.3297 377.787 51.3297Z" fill="#7B7B7B"/>
<path d="M330.435 1.20376C331.313 0.4395 332.433 0.01432 333.596 0.00474548H377.788C379.061 0.00474548 380.283 0.512073 381.184 1.41512C382.085 2.31816 382.591 3.54294 382.591 4.82004V46.6456C382.557 47.8984 382.071 49.0962 381.222 50.0164L330.435 1.20376Z" fill="#AAAAAA"/>
<path d="M370.251 6.19157H340.263C337.743 6.19157 335.7 8.23463 335.7 10.7549V40.7428C335.7 43.2631 337.743 45.3061 340.263 45.3061H370.251C372.771 45.3061 374.814 43.2631 374.814 40.7428V10.7549C374.814 8.23463 372.771 6.19157 370.251 6.19157Z" fill="#8E8E8E"/>
<path d="M355.058 34.6531C354.476 33.4383 353.552 32.3091 352.286 31.2654V30.3671C352.833 30.6238 353.312 30.8804 353.723 31.1371C354.134 31.3766 354.476 31.6161 354.75 31.8557V16.8931H355.827V31.8557C356.118 31.6161 356.469 31.3766 356.88 31.1371C357.29 30.8804 357.761 30.6238 358.291 30.3671V31.2654C357.042 32.3091 356.118 33.4383 355.52 34.6531H355.058Z" fill="#EDEDED"/>
<path d="M432.586 51.3297H388.394C387.12 51.3297 385.899 50.8237 384.998 49.9228C384.097 49.022 383.591 47.8002 383.591 46.5263V4.80346C383.591 3.5295 384.097 2.30772 384.998 1.4069C385.899 0.506073 387.12 0 388.394 0H432.586C433.86 0 435.082 0.506073 435.983 1.4069C436.884 2.30772 437.39 3.5295 437.39 4.80346V46.5263C437.39 47.8002 436.884 49.022 435.983 49.9228C435.082 50.8237 433.86 51.3297 432.586 51.3297Z" fill="#7B7B7B"/>
<path d="M385.234 1.20376C386.111 0.4395 387.232 0.01432 388.394 0.00474548H432.586C433.86 0.00474548 435.082 0.512073 435.983 1.41512C436.884 2.31816 437.39 3.54294 437.39 4.82004V46.6456C437.356 47.8984 436.869 49.0962 436.021 50.0164L385.234 1.20376Z" fill="#AAAAAA"/>
<path d="M425.05 6.19157H395.062C392.541 6.19157 390.498 8.23463 390.498 10.7549V40.7428C390.498 43.2631 392.541 45.3061 395.062 45.3061H425.05C427.57 45.3061 429.613 43.2631 429.613 40.7428V10.7549C429.613 8.23463 427.57 6.19157 425.05 6.19157Z" fill="#8E8E8E"/>
<path d="M415.722 28.8785C415.979 28.331 416.227 27.8519 416.467 27.4413C416.723 27.0307 416.971 26.6885 417.211 26.4147H402.248V25.3368H417.211C416.971 25.0459 416.723 24.6952 416.467 24.2845C416.227 23.8739 415.979 23.4034 415.722 22.873H416.621C417.699 24.122 418.828 25.0459 420.008 25.6448V26.1067C418.828 26.6885 417.699 27.6124 416.621 28.8785H415.722Z" fill="#EDEDED"/>
<path d="M245.921 35.8683V21.8763C245.409 22.3083 244.641 22.7723 243.617 23.2683V22.4283C244.209 21.9163 244.721 21.3963 245.153 20.8683C245.585 20.3403 245.937 19.8043 246.209 19.2603H246.641C246.913 19.8043 247.265 20.3403 247.697 20.8683C248.129 21.3963 248.641 21.9163 249.233 22.4283V23.2683C248.737 23.0283 248.297 22.7963 247.913 22.5723C247.529 22.3323 247.201 22.1003 246.929 21.8763V35.8683H245.921Z" fill="#EDEDED"/>
</svg>
