<svg width="55" height="52" viewBox="0 0 55 52" fill="none" xmlns="http://www.w3.org/2000/svg">
<path d="M49.7766 51.4806H5.58483C4.31087 51.4806 3.08909 50.9746 2.18827 50.0737C1.28745 49.1729 0.781372 47.9511 0.781372 46.6772V4.95436C0.781372 3.68041 1.28745 2.45862 2.18827 1.5578C3.08909 0.656979 4.31087 0.150906 5.58483 0.150906H49.7766C51.0506 0.150906 52.2723 0.656979 53.1732 1.5578C54.074 2.45862 54.5801 3.68041 54.5801 4.95436V46.6772C54.5801 47.9511 54.074 49.1729 53.1732 50.0737C52.2723 50.9746 51.0506 51.4806 49.7766 51.4806Z" fill="#7B7B7B"/>
<path d="M2.42419 1.35466C3.30169 0.590402 4.42249 0.165222 5.58487 0.155647H49.7766C51.0506 0.155647 52.2724 0.662975 53.1732 1.56602C54.074 2.46906 54.5801 3.69384 54.5801 4.97094V46.7965C54.5462 48.0493 54.0598 49.2471 53.2111 50.1673L2.42419 1.35466Z" fill="#AAAAAA"/>
<path d="M42.24 6.34248H12.252C9.73177 6.34248 7.68872 8.38553 7.68872 10.9058V40.8937C7.68872 43.414 9.73177 45.457 12.252 45.457H42.24C44.7602 45.457 46.8032 43.414 46.8032 40.8937V10.9058C46.8032 8.38553 44.7602 6.34248 42.24 6.34248Z" fill="#8E8E8E"/>
<path d="M27.0467 34.804C26.4649 33.5892 25.541 32.46 24.2749 31.4163V30.518C24.8224 30.7747 25.3015 31.0313 25.7121 31.288C26.1227 31.5275 26.4649 31.767 26.7387 32.0066V17.044H27.8166V32.0066C28.1075 31.767 28.4583 31.5275 28.8689 31.288C29.2795 31.0313 29.75 30.7747 30.2805 30.518V31.4163C29.0314 32.46 28.1075 33.5892 27.5086 34.804H27.0467Z" fill="#EDEDED"/>
</svg>
