<svg width="55" height="52" viewBox="0 0 55 52" fill="none" xmlns="http://www.w3.org/2000/svg">
<path d="M49.7766 51.4806H5.58486C4.3109 51.4806 3.08912 50.9746 2.1883 50.0737C1.28748 49.1729 0.781403 47.9511 0.781403 46.6772V4.95437C0.781403 3.68041 1.28748 2.45863 2.1883 1.55781C3.08912 0.656983 4.3109 0.150909 5.58486 0.150909H49.7766C51.0506 0.150909 52.2724 0.656983 53.1732 1.55781C54.074 2.45863 54.5801 3.68041 54.5801 4.95437V46.6772C54.5801 47.9511 54.074 49.1729 53.1732 50.0737C52.2724 50.9746 51.0506 51.4806 49.7766 51.4806Z" fill="#797979"/>
<path d="M2.42419 1.35465C3.30169 0.590394 4.42249 0.165214 5.58487 0.15564H49.7766C51.0506 0.15564 52.2724 0.662967 53.1732 1.56601C54.074 2.46905 54.5801 3.69384 54.5801 4.97093V46.7965C54.5462 48.0493 54.0598 49.2471 53.2111 50.1672L2.42419 1.35465Z" fill="#B9B9B9"/>
<path d="M42.2401 6.34247H12.2521C9.73186 6.34247 7.68881 8.38552 7.68881 10.9058V40.8937C7.68881 43.414 9.73186 45.457 12.2521 45.457H42.2401C44.7603 45.457 46.8033 43.414 46.8033 40.8937V10.9058C46.8033 8.38552 44.7603 6.34247 42.2401 6.34247Z" fill="#989898"/>
<path d="M27.0467 34.804C26.4649 33.5892 25.541 32.46 24.2748 31.4163V30.518C24.8224 30.7747 25.3014 31.0313 25.7121 31.288C26.1227 31.5275 26.4649 31.767 26.7387 32.0066V17.044H27.8166V32.0066C28.1075 31.767 28.4582 31.5275 28.8689 31.288C29.2795 31.0313 29.75 30.7747 30.2804 30.518V31.4163C29.0314 32.46 28.1075 33.5892 27.5086 34.804H27.0467Z" fill="white"/>
</svg>
