<svg width="748" height="748" viewBox="0 0 748 748" fill="none" xmlns="http://www.w3.org/2000/svg">
<g filter="url(#filter0_f_6_103)">
<g clip-path="url(#clip0_6_103)">
<rect x="6" y="6" width="736" height="736" fill="#F1F8FF"/>
<rect x="70.0001" y="7" width="736" height="32" transform="rotate(90 70.0001 7)" fill="#D1E9FF" fill-opacity="0.31"/>
<rect x="134" y="7" width="736" height="32" transform="rotate(90 134 7)" fill="#D1E9FF" fill-opacity="0.31"/>
<rect x="198" y="7" width="736" height="32" transform="rotate(90 198 7)" fill="#D1E9FF" fill-opacity="0.31"/>
<rect x="262" y="7" width="736" height="32" transform="rotate(90 262 7)" fill="#D1E9FF" fill-opacity="0.31"/>
<rect x="326" y="7" width="736" height="32" transform="rotate(90 326 7)" fill="#D1E9FF" fill-opacity="0.31"/>
<rect x="390" y="7" width="736" height="32" transform="rotate(90 390 7)" fill="#D1E9FF" fill-opacity="0.31"/>
<rect x="454" y="7" width="736" height="32" transform="rotate(90 454 7)" fill="#D1E9FF" fill-opacity="0.31"/>
<rect x="518" y="7" width="736" height="32" transform="rotate(90 518 7)" fill="#D1E9FF" fill-opacity="0.31"/>
<rect x="582" y="7" width="736" height="32" transform="rotate(90 582 7)" fill="#D1E9FF" fill-opacity="0.31"/>
<rect x="646" y="7" width="736" height="32" transform="rotate(90 646 7)" fill="#D1E9FF" fill-opacity="0.31"/>
<rect x="710" y="7" width="736" height="32" transform="rotate(90 710 7)" fill="#D1E9FF" fill-opacity="0.31"/>
<rect x="6" y="38" width="736" height="32" fill="#D1E9FF" fill-opacity="0.31"/>
<rect x="6" y="102" width="736" height="32" fill="#D1E9FF" fill-opacity="0.31"/>
<rect x="6" y="166" width="736" height="32" fill="#D1E9FF" fill-opacity="0.31"/>
<rect x="6" y="230" width="736" height="32" fill="#D1E9FF" fill-opacity="0.31"/>
<rect x="6" y="294" width="736" height="32" fill="#D1E9FF" fill-opacity="0.31"/>
<rect x="6" y="358" width="736" height="32" fill="#D1E9FF" fill-opacity="0.31"/>
<rect x="6" y="422" width="736" height="32" fill="#D1E9FF" fill-opacity="0.31"/>
<rect x="6" y="486" width="736" height="32" fill="#D1E9FF" fill-opacity="0.31"/>
<rect x="6" y="550" width="736" height="32" fill="#D1E9FF" fill-opacity="0.31"/>
<rect x="6" y="614" width="736" height="32" fill="#D1E9FF" fill-opacity="0.31"/>
<rect x="6" y="678" width="736" height="32" fill="#D1E9FF" fill-opacity="0.31"/>
</g>
<rect x="6.5" y="6.5" width="735" height="735" stroke="#85C4FF"/>
<g clip-path="url(#clip1_6_103)">
<ellipse cx="134" cy="346" rx="24" ry="5" fill="#C4DAEE"/>
<path d="M105.044 290.504C139.039 344.636 175.855 343.237 160.349 346.641C119.251 355.663 103.555 317.616 104.228 296.017L102 290.504L105.044 289V290.504Z" fill="#FFE600"/>
<path d="M106.188 291.431C149.275 319.91 174.547 301.574 165.009 311.213C139.727 336.762 113.913 313.842 106.605 296.145L102.762 291.504L105.245 289.089L106.188 291.431Z" fill="#FFE500"/>
<path d="M104 290C108.955 307.667 128.092 343 165 343C149.451 336 115.482 315.6 104 290Z" fill="#FFF065"/>
<path d="M103.606 289.693C113.984 302.808 141.276 324.848 167.424 308.093C153.687 309.064 121.692 306.744 103.606 289.693Z" fill="#FFF065"/>
<path d="M164.455 343.231L160.114 340.746L158.247 343.822L159.144 347.297C161.509 346.569 164.648 345.525 164.464 344.722L164.455 343.231Z" fill="#426280"/>
<path d="M166.878 307.813L163.047 308.152L162.636 310.521L164.214 312.03C165.619 310.723 166.731 309.191 167.111 308.589L166.878 307.813Z" fill="#426280"/>
</g>
<g clip-path="url(#clip2_6_103)">
<ellipse cx="646" cy="411" rx="24" ry="5" fill="#C4DAEE"/>
<path d="M672.047 397.878C672.078 410.229 660.449 415.009 646.09 415.045C631.73 415.081 620.077 409.884 620.047 398.008C620.01 383.281 631.735 377.033 646.095 376.997C660.454 376.961 672.016 385.526 672.047 397.878Z" fill="#FFEA2C"/>
<path d="M630.378 375.129C631.319 369.319 636.335 365.049 642.221 365.047L650.431 365.045C656.259 365.044 661.245 369.23 662.253 374.97L664.542 388.008C665.832 395.354 660.18 402.084 652.722 402.084L640.112 402.083C632.72 402.082 627.086 395.462 628.267 388.165L630.378 375.129Z" fill="#FFEA2C"/>
<path d="M630.746 352.797C630.746 352.797 636.783 351.38 640.842 354.316C644.901 357.252 645.446 363.428 645.446 363.428C645.171 363.808 639.409 364.845 635.35 361.909C631.291 358.973 630.746 352.797 630.746 352.797Z" fill="#56D053"/>
<path d="M652.363 411.899C649.379 414.869 632.536 414.567 625.5 407.5C618.464 400.433 623.41 388.786 626.394 385.815C629.378 382.844 629.191 394.928 636.227 401.995C643.263 409.062 655.347 408.928 652.363 411.899Z" fill="#FFE500"/>
</g>
<g clip-path="url(#clip3_6_103)">
<ellipse cx="325" cy="540" rx="24" ry="5" fill="#C4DAEE"/>
<path d="M354 516.955C354 532.971 341.016 541.955 325 541.955C308.984 541.955 296 532.971 296 516.955C296 500.939 305 491.455 325 496.955C343 490.455 354 500.939 354 516.955Z" fill="#FF6F50"/>
<path d="M338.39 481.501C338.39 481.501 339.043 488.123 335.347 492.001C331.651 495.879 325.006 495.546 325.006 495.546C324.641 495.198 324.353 488.924 328.049 485.046C331.745 481.168 338.39 481.501 338.39 481.501Z" fill="#56D053"/>
<path d="M332.676 537.376C329.59 540.448 312.04 540 304.654 532.582C297.268 525.163 297.327 511.659 300.413 508.587C303.498 505.515 308.401 519.511 315.786 526.93C323.172 534.348 335.761 534.304 332.676 537.376Z" fill="#EB5B3C"/>
</g>
<path d="M273 363H337V415C337 421.627 331.627 427 325 427H285C278.373 427 273 421.627 273 415V363Z" fill="#426280"/>
<line x1="273" y1="375" x2="337" y2="375" stroke="#85C4FF" stroke-width="8"/>
<circle cx="291" cy="409" r="12" fill="white"/>
<circle cx="291" cy="413" r="4" fill="#2C2C2C"/>
<circle cx="319" cy="409" r="12" fill="white"/>
<circle cx="319" cy="413" r="4" fill="#2C2C2C"/>
<g clip-path="url(#clip4_6_103)">
<g clip-path="url(#clip5_6_103)">
<rect x="341.69" y="229" width="64" height="99" transform="rotate(45 341.69 229)" fill="#426280"/>
<line x1="333.205" y1="237.485" x2="378.459" y2="282.74" stroke="#85C4FF" stroke-width="8"/>
<line x1="321.891" y1="248.799" x2="367.146" y2="294.054" stroke="#85C4FF" stroke-width="8"/>
<line x1="310.577" y1="260.113" x2="355.832" y2="305.368" stroke="#85C4FF" stroke-width="8"/>
<line x1="275.577" y1="295.113" x2="320.832" y2="340.368" stroke="#85C4FF" stroke-width="8"/>
<line x1="299.264" y1="271.426" x2="344.518" y2="316.681" stroke="#85C4FF" stroke-width="8"/>
<line x1="286.891" y1="283.799" x2="332.146" y2="329.054" stroke="#85C4FF" stroke-width="8"/>
</g>
</g>
<g clip-path="url(#clip6_6_103)">
<rect x="400" y="235" width="64" height="64" transform="rotate(90 400 235)" fill="#426280"/>
<line x1="388" y1="235" x2="388" y2="299" stroke="#85C4FF" stroke-width="8"/>
<line x1="372" y1="235" x2="372" y2="299" stroke="#85C4FF" stroke-width="8"/>
<line x1="356" y1="235" x2="356" y2="299" stroke="#85C4FF" stroke-width="8"/>
<line x1="340" y1="235" x2="340" y2="299" stroke="#85C4FF" stroke-width="8"/>
</g>
<g clip-path="url(#clip7_6_103)">
<rect x="273" y="299" width="64" height="64" fill="#426280"/>
<line x1="273" y1="311" x2="337" y2="311" stroke="#85C4FF" stroke-width="8"/>
<line x1="273" y1="327" x2="337" y2="327" stroke="#85C4FF" stroke-width="8"/>
<line x1="273" y1="343" x2="337" y2="343" stroke="#85C4FF" stroke-width="8"/>
<line x1="273" y1="359" x2="337" y2="359" stroke="#85C4FF" stroke-width="8"/>
</g>
<g clip-path="url(#clip8_6_103)">
<path d="M452 235C458.627 235 464 240.373 464 247L464 287C464 293.627 458.627 299 452 299L400 299L400 235L452 235Z" fill="#426280"/>
<line x1="452" y1="235" x2="452" y2="299" stroke="#85C4FF" stroke-width="8"/>
<line x1="436" y1="235" x2="436" y2="299" stroke="#85C4FF" stroke-width="8"/>
<line x1="420" y1="235" x2="420" y2="299" stroke="#85C4FF" stroke-width="8"/>
<line x1="404" y1="235" x2="404" y2="299" stroke="#85C4FF" stroke-width="8"/>
</g>
</g>
<defs>
<filter id="filter0_f_6_103" x="-1" y="0" width="750" height="748" filterUnits="userSpaceOnUse" color-interpolation-filters="sRGB">
<feFlood flood-opacity="0" result="BackgroundImageFix"/>
<feBlend mode="normal" in="SourceGraphic" in2="BackgroundImageFix" result="shape"/>
<feGaussianBlur stdDeviation="3" result="effect1_foregroundBlur_6_103"/>
</filter>
<clipPath id="clip0_6_103">
<rect x="6" y="6" width="736" height="736" fill="white"/>
</clipPath>
<clipPath id="clip1_6_103">
<rect width="64" height="64" fill="white" transform="translate(102 287)"/>
</clipPath>
<clipPath id="clip2_6_103">
<rect width="64" height="64" fill="white" transform="translate(614 352)"/>
</clipPath>
<clipPath id="clip3_6_103">
<rect width="64" height="64" fill="white" transform="translate(293 481)"/>
</clipPath>
<clipPath id="clip4_6_103">
<rect width="64" height="64" fill="white" transform="translate(337.125 235.125) rotate(90.1118)"/>
</clipPath>
<clipPath id="clip5_6_103">
<rect width="64" height="98.5564" fill="white" transform="translate(341.69 229) rotate(45)"/>
</clipPath>
<clipPath id="clip6_6_103">
<rect width="64" height="64" fill="white" transform="matrix(0 1 -1 0 400 235)"/>
</clipPath>
<clipPath id="clip7_6_103">
<rect width="64" height="64" fill="white" transform="translate(273 299)"/>
</clipPath>
<clipPath id="clip8_6_103">
<path d="M452 235C458.627 235 464 240.373 464 247L464 287C464 293.627 458.627 299 452 299L400 299L400 235L452 235Z" fill="white"/>
</clipPath>
</defs>
</svg>
