<svg width="36" height="63" viewBox="0 0 36 63" fill="none" xmlns="http://www.w3.org/2000/svg">
<path fill-rule="evenodd" clip-rule="evenodd" d="M17.4994 20C10.5965 20 5 25.5968 5 32.5006C5 38.0234 8.58077 42.7087 13.5484 44.3606C14.174 44.4763 14.4016 44.0913 14.4016 43.759C14.4016 43.4628 14.3907 42.6772 14.3853 41.633C10.908 42.3891 10.1744 39.957 10.1744 39.957C9.60577 38.5131 8.78622 38.1292 8.78622 38.1292C7.65128 37.3542 8.87244 37.3692 8.87244 37.3692C10.1269 37.458 10.7872 38.657 10.7872 38.657C11.9019 40.5673 13.7131 40.0144 14.425 39.6965C14.5381 38.8872 14.8619 38.3375 15.2186 38.0244C12.4433 37.709 9.52532 36.6365 9.52532 31.8468C9.52532 30.4817 10.0122 29.3657 10.8115 28.4917C10.6837 28.1769 10.2538 26.9061 10.9343 25.1843C10.9343 25.1843 11.9837 24.8484 14.3721 26.4667C15.3686 26.1881 16.4381 26.049 17.5013 26.0449C18.5628 26.0494 19.6327 26.1881 20.6304 26.4667C23.0173 24.8484 24.0651 25.1843 24.0651 25.1843C24.7471 26.9061 24.3176 28.1769 24.1894 28.4917C24.9907 29.3657 25.474 30.4817 25.474 31.8468C25.474 36.6478 22.5519 37.7054 19.7673 38.0138C20.2154 38.4 20.6154 39.1644 20.6154 40.3308C20.6154 42.001 20.6003 43.3487 20.6003 43.7587C20.6003 44.0936 20.825 44.483 21.4596 44.359C26.4218 42.7035 30 38.0218 30 32.5006C30 25.5968 24.4035 20 17.4994 20Z" fill="#FBFFFF"/>
</svg>
