<svg width="27" height="24" viewBox="0 0 27 24" fill="none" xmlns="http://www.w3.org/2000/svg">
<mask id="path-1-inside-1_6_337" fill="white">
<path fill-rule="evenodd" clip-rule="evenodd" d="M2.86938 2.25207C-0.133384 5.25483 -0.133378 10.1233 2.86938 13.126L13.7433 24L13.7716 23.9717L13.7999 24L24.6739 13.126C27.6767 10.1233 27.6767 5.25483 24.6739 2.25207C21.6711 -0.750691 16.8027 -0.75069 13.7999 2.25207L13.7716 2.28036L13.7433 2.25207C10.7406 -0.75069 5.87214 -0.750691 2.86938 2.25207Z"/>
</mask>
<path d="M2.86938 13.126L4.2836 11.7118L4.2836 11.7118L2.86938 13.126ZM13.7433 24L12.3291 25.4142L13.7433 26.8284L15.1576 25.4142L13.7433 24ZM13.7716 23.9717L15.1858 22.5575L13.7716 21.1433L12.3574 22.5575L13.7716 23.9717ZM13.7999 24L12.3857 25.4142L13.7999 26.8284L15.2141 25.4142L13.7999 24ZM24.6739 13.126L23.2597 11.7118L23.2597 11.7118L24.6739 13.126ZM24.6739 2.25207L26.0881 0.837858L26.0881 0.837858L24.6739 2.25207ZM13.7999 2.25207L12.3857 0.837859L12.3857 0.837859L13.7999 2.25207ZM13.7716 2.28036L12.3574 3.69458L13.7716 5.10879L15.1858 3.69458L13.7716 2.28036ZM13.7433 2.25207L15.1576 0.837859L13.7433 2.25207ZM4.2836 11.7118C2.06188 9.49011 2.06188 5.888 4.28359 3.66629L1.45516 0.837858C-2.32865 4.62167 -2.32864 10.7564 1.45517 14.5403L4.2836 11.7118ZM15.1576 22.5858L4.2836 11.7118L1.45517 14.5403L12.3291 25.4142L15.1576 22.5858ZM12.3574 22.5575L12.3291 22.5858L15.1576 25.4142L15.1858 25.3859L12.3574 22.5575ZM12.3574 25.3859L12.3857 25.4142L15.2141 22.5858L15.1858 22.5575L12.3574 25.3859ZM15.2141 25.4142L26.0881 14.5403L23.2597 11.7118L12.3857 22.5858L15.2141 25.4142ZM26.0881 14.5403C29.8719 10.7564 29.8719 4.62167 26.0881 0.837858L23.2597 3.66629C25.4814 5.888 25.4814 9.49011 23.2597 11.7118L26.0881 14.5403ZM26.0881 0.837858C22.3043 -2.94595 16.1695 -2.94595 12.3857 0.837859L15.2141 3.66629C17.4359 1.44457 21.038 1.44457 23.2597 3.66629L26.0881 0.837858ZM12.3857 0.837859L12.3574 0.866151L15.1858 3.69458L15.2141 3.66629L12.3857 0.837859ZM12.3291 3.66629L12.3574 3.69458L15.1858 0.866151L15.1576 0.837859L12.3291 3.66629ZM4.28359 3.66629C6.50531 1.44457 10.1074 1.44457 12.3291 3.66629L15.1576 0.837859C11.3737 -2.94595 5.23898 -2.94595 1.45516 0.837858L4.28359 3.66629Z" fill="#FF6F50" mask="url(#path-1-inside-1_6_337)"/>
</svg>
