<svg width="55" height="52" viewBox="0 0 55 52" fill="none" xmlns="http://www.w3.org/2000/svg">
<path d="M49.8773 51.4806H5.68547C4.41152 51.4806 3.18974 50.9746 2.28891 50.0737C1.38809 49.1729 0.882019 47.9511 0.882019 46.6772V4.95437C0.882019 3.68041 1.38809 2.45863 2.28891 1.55781C3.18974 0.656983 4.41152 0.150909 5.68547 0.150909H49.8773C51.1512 0.150909 52.373 0.656983 53.2738 1.55781C54.1746 2.45863 54.6807 3.68041 54.6807 4.95437V46.6772C54.6807 47.9511 54.1746 49.1729 53.2738 50.0737C52.373 50.9746 51.1512 51.4806 49.8773 51.4806Z" fill="#797979"/>
<path d="M2.52481 1.35465C3.40231 0.590394 4.52311 0.165214 5.68548 0.15564H49.8773C51.1512 0.15564 52.373 0.662967 53.2738 1.56601C54.1746 2.46905 54.6807 3.69384 54.6807 4.97093V46.7965C54.6469 48.0493 54.1604 49.2471 53.3117 50.1672L2.52481 1.35465Z" fill="#B9B9B9"/>
<path d="M42.3407 6.34247H12.3527C9.83248 6.34247 7.78943 8.38552 7.78943 10.9058V40.8937C7.78943 43.414 9.83248 45.457 12.3527 45.457H42.3407C44.8609 45.457 46.904 43.414 46.904 40.8937V10.9058C46.904 8.38552 44.8609 6.34247 42.3407 6.34247Z" fill="#989898"/>
<path d="M33.0135 29.0295C33.2702 28.4819 33.5183 28.0029 33.7578 27.5922C34.0144 27.1816 34.2625 26.8394 34.5021 26.5656H19.5395V25.4877H34.5021C34.2625 25.1968 34.0144 24.8461 33.7578 24.4354C33.5183 24.0248 33.2702 23.5543 33.0135 23.0239H33.9118C34.9897 24.2729 36.119 25.1968 37.2995 25.7957V26.2576C36.119 26.8394 34.9897 27.7633 33.9118 29.0295H33.0135Z" fill="white"/>
</svg>
