<svg width="55" height="52" viewBox="0 0 55 52" fill="none" xmlns="http://www.w3.org/2000/svg">
<path d="M49.8772 51.4806H5.68541C4.41146 51.4806 3.18968 50.9746 2.28885 50.0737C1.38803 49.1729 0.881958 47.9511 0.881958 46.6772V4.95436C0.881958 3.68041 1.38803 2.45862 2.28885 1.5578C3.18968 0.656979 4.41146 0.150906 5.68541 0.150906H49.8772C51.1512 0.150906 52.3729 0.656979 53.2738 1.5578C54.1746 2.45862 54.6807 3.68041 54.6807 4.95436V46.6772C54.6807 47.9511 54.1746 49.1729 53.2738 50.0737C52.3729 50.9746 51.1512 51.4806 49.8772 51.4806Z" fill="#7B7B7B"/>
<path d="M2.52478 1.35466C3.40227 0.590402 4.52308 0.165222 5.68545 0.155647H49.8772C51.1512 0.155647 52.373 0.662975 53.2738 1.56602C54.1746 2.46906 54.6807 3.69384 54.6807 4.97094V46.7965C54.6468 48.0493 54.1603 49.2471 53.3117 50.1673L2.52478 1.35466Z" fill="#AAAAAA"/>
<path d="M42.3406 6.34248H12.3526C9.83236 6.34248 7.78931 8.38553 7.78931 10.9058V40.8937C7.78931 43.414 9.83236 45.457 12.3526 45.457H42.3406C44.8608 45.457 46.9038 43.414 46.9038 40.8937V10.9058C46.9038 8.38553 44.8608 6.34248 42.3406 6.34248Z" fill="#8E8E8E"/>
<path d="M33.0135 29.0294C33.2701 28.4819 33.5182 28.0029 33.7578 27.5922C34.0144 27.1816 34.2625 26.8394 34.502 26.5656H19.5394V25.4877H34.502C34.2625 25.1968 34.0144 24.8461 33.7578 24.4354C33.5182 24.0248 33.2701 23.5543 33.0135 23.0239H33.9117C34.9897 24.2729 36.1189 25.1968 37.2995 25.7957V26.2576C36.1189 26.8394 34.9897 27.7633 33.9117 29.0294H33.0135Z" fill="#EDEDED"/>
</svg>
