<svg width="64" height="64" viewBox="0 0 64 64" fill="none" xmlns="http://www.w3.org/2000/svg">
<g id="pear" clip-path="url(#clip0_6_115)">
<ellipse id="Ellipse 13" cx="32" cy="59" rx="24" ry="5" fill="#C4DAEE"/>
<path id="Ellipse 11" d="M58.047 45.8777C58.0779 58.2293 46.4492 63.0089 32.0898 63.0448C17.7305 63.0806 6.07685 57.884 6.04719 46.0075C6.01043 31.2807 17.7354 25.0331 32.0948 24.9973C46.4541 24.9614 58.0162 33.5261 58.047 45.8777Z" fill="#FFEA2C"/>
<path id="Rectangle 23" d="M16.378 23.1295C17.3188 17.3192 22.3349 13.0489 28.2208 13.0474L36.431 13.0454C42.2589 13.044 47.2452 17.23 48.2531 22.9701L50.5425 36.0082C51.8323 43.3537 46.1802 50.0842 38.7224 50.0836L26.1123 50.0826C18.7199 50.082 13.086 43.462 14.2675 36.1646L16.378 23.1295Z" fill="#FFEA2C"/>
<path id="Ellipse 10" d="M16.746 0.79672C16.746 0.79672 22.7826 -0.620052 26.8418 2.31576C30.901 5.25158 31.4457 11.4283 31.4457 11.4283C31.1711 11.8079 25.4091 12.845 21.3499 9.90921C17.2907 6.97339 16.746 0.79672 16.746 0.79672Z" fill="#56D053"/>
<path id="Ellipse 12" d="M38.3634 59.8986C35.3794 62.8695 18.5359 62.5669 11.5 55.5C4.46411 48.4331 9.41019 36.7857 12.3942 33.8148C15.3781 30.844 15.1911 42.9277 22.227 49.9946C29.2629 57.0615 41.3474 56.9277 38.3634 59.8986Z" fill="#FFE500"/>
</g>
<defs>
<clipPath id="clip0_6_115">
<rect width="64" height="64" fill="white"/>
</clipPath>
</defs>
</svg>
