<svg width="55" height="52" viewBox="0 0 55 52" fill="none" xmlns="http://www.w3.org/2000/svg">
<path d="M49.676 51.4806H5.48418C4.21022 51.4806 2.98844 50.9745 2.08762 50.0737C1.1868 49.1729 0.680725 47.9511 0.680725 46.6772V4.95434C0.680725 3.68038 1.1868 2.4586 2.08762 1.55778C2.98844 0.656952 4.21022 0.150879 5.48418 0.150879H49.676C50.9499 0.150879 52.1717 0.656952 53.0725 1.55778C53.9733 2.4586 54.4794 3.68038 54.4794 4.95434V46.6772C54.4794 47.9511 53.9733 49.1729 53.0725 50.0737C52.1717 50.9745 50.9499 51.4806 49.676 51.4806Z" fill="#797979"/>
<path d="M2.32352 1.35468C3.20101 0.590425 4.32181 0.165245 5.48419 0.15567H49.676C50.9499 0.15567 52.1717 0.662998 53.0725 1.56604C53.9734 2.46908 54.4794 3.69387 54.4794 4.97096V46.7966C54.4456 48.0493 53.9591 49.2471 53.1104 50.1673L2.32352 1.35468Z" fill="#B9B9B9"/>
<path d="M42.1394 6.3425H12.1514C9.63119 6.3425 7.58813 8.38555 7.58813 10.9058V40.8938C7.58813 43.414 9.63119 45.457 12.1514 45.457H42.1394C44.6596 45.457 46.7027 43.414 46.7027 40.8938V10.9058C46.7027 8.38555 44.6596 6.3425 42.1394 6.3425Z" fill="#989898"/>
<path d="M21.4455 29.0294C20.9151 28.3964 20.3676 27.8488 19.8029 27.3869C19.2383 26.9249 18.6566 26.5485 18.0577 26.2576V25.7956C19.2383 25.1968 20.3676 24.2729 21.4455 23.0238H22.3438C22.07 23.6056 21.7963 24.1189 21.5225 24.5637C21.2487 24.9915 20.9835 25.3508 20.7269 25.6417V26.4116C20.9835 26.6854 21.2487 27.0447 21.5225 27.4895C21.7963 27.9173 22.07 28.4306 22.3438 29.0294H21.4455ZM20.5986 26.5656V25.4877H35.8178V26.5656H20.5986Z" fill="white"/>
</svg>
