<svg width="55" height="52" viewBox="0 0 55 52" fill="none" xmlns="http://www.w3.org/2000/svg">
<path d="M49.6759 51.4806H5.48412C4.21016 51.4806 2.98838 50.9745 2.08756 50.0737C1.18674 49.1729 0.680664 47.9511 0.680664 46.6772V4.95434C0.680664 3.68038 1.18674 2.4586 2.08756 1.55778C2.98838 0.656952 4.21016 0.150879 5.48412 0.150879H49.6759C50.9499 0.150879 52.1716 0.656952 53.0725 1.55778C53.9733 2.4586 54.4794 3.68038 54.4794 4.95434V46.6772C54.4794 47.9511 53.9733 49.1729 53.0725 50.0737C52.1716 50.9745 50.9499 51.4806 49.6759 51.4806Z" fill="#7B7B7B"/>
<path d="M2.32349 1.35468C3.20098 0.590425 4.32178 0.165245 5.48416 0.15567H49.6759C50.9499 0.15567 52.1717 0.662998 53.0725 1.56604C53.9733 2.46908 54.4794 3.69387 54.4794 4.97096V46.7966C54.4455 48.0493 53.9591 49.2471 53.1104 50.1673L2.32349 1.35468Z" fill="#AAAAAA"/>
<path d="M42.1394 6.3425H12.1514C9.63119 6.3425 7.58813 8.38555 7.58813 10.9058V40.8938C7.58813 43.414 9.63119 45.457 12.1514 45.457H42.1394C44.6596 45.457 46.7027 43.414 46.7027 40.8938V10.9058C46.7027 8.38555 44.6596 6.3425 42.1394 6.3425Z" fill="#8E8E8E"/>
<path d="M21.4454 29.0294C20.915 28.3964 20.3675 27.8488 19.8028 27.3869C19.2382 26.9249 18.6565 26.5485 18.0576 26.2576V25.7957C19.2382 25.1968 20.3675 24.2729 21.4454 23.0238H22.3436C22.0699 23.6056 21.7961 24.1189 21.5224 24.5637C21.2486 24.9915 20.9834 25.3508 20.7268 25.6417V26.4116C20.9834 26.6854 21.2486 27.0447 21.5224 27.4895C21.7961 27.9173 22.0699 28.4306 22.3436 29.0294H21.4454ZM20.5984 26.5656V25.4877H35.8177V26.5656H20.5984Z" fill="#EDEDED"/>
</svg>
