<svg width="162" height="96" viewBox="0 0 162 96" fill="none" xmlns="http://www.w3.org/2000/svg">
<g clip-path="url(#clip0_6_705)">
<path d="M81.6669 55.301H57.0319C54.8526 55.301 53.0859 57.103 53.0859 59.3258V84.4528C53.0859 86.6756 54.8526 88.4776 57.0319 88.4776H81.6669C83.8463 88.4776 85.6129 86.6756 85.6129 84.4528V59.3258C85.6129 57.103 83.8463 55.301 81.6669 55.301Z" fill="#989898"/>
<path d="M81.6669 55.301H57.0319C54.8526 55.301 53.0859 57.103 53.0859 59.3258V84.4528C53.0859 86.6756 54.8526 88.4776 57.0319 88.4776H81.6669C83.8463 88.4776 85.6129 86.6756 85.6129 84.4528V59.3258C85.6129 57.103 83.8463 55.301 81.6669 55.301Z" stroke="white" stroke-width="0.363034" stroke-miterlimit="10"/>
<path d="M66.1235 12.9076H41.4885C39.3091 12.9076 37.5424 14.7096 37.5424 16.9324V42.0594C37.5424 44.2822 39.3091 46.0842 41.4885 46.0842H66.1235C68.3028 46.0842 70.0695 44.2822 70.0695 42.0594V16.9324C70.0695 14.7096 68.3028 12.9076 66.1235 12.9076Z" fill="#989898" stroke="white" stroke-width="0.394602" stroke-miterlimit="10"/>
<path d="M38.2962 55.5063H13.6612C11.5908 55.5063 9.91248 57.2181 9.91248 59.3298V84.4568C9.91248 86.5685 11.5908 88.2804 13.6612 88.2804H38.2962C40.3666 88.2804 42.0449 86.5685 42.0449 84.4568V59.3298C42.0449 57.2181 40.3666 55.5063 38.2962 55.5063Z" fill="#989898"/>
<path d="M38.3001 55.7075C39.242 55.7075 40.1453 56.0891 40.8114 56.7685C41.4774 57.4478 41.8516 58.3691 41.8516 59.3298V84.4568C41.8516 85.4175 41.4774 86.3388 40.8114 87.0182C40.1453 87.6975 39.242 88.0791 38.3001 88.0791H13.6612C12.7193 88.0791 11.816 87.6975 11.1499 87.0182C10.4839 86.3388 10.1098 85.4175 10.1098 84.4568V59.3258C10.1098 58.3651 10.4839 57.4438 11.1499 56.7644C11.816 56.0851 12.7193 55.7035 13.6612 55.7035H38.3001M38.3001 55.301H13.6612C12.6146 55.301 11.6109 55.725 10.8709 56.4798C10.1309 57.2346 9.71515 58.2584 9.71515 59.3258V84.4528C9.71515 85.5202 10.1309 86.5439 10.8709 87.2987C11.6109 88.0535 12.6146 88.4776 13.6612 88.4776H38.3001C39.3467 88.4776 40.3504 88.0535 41.0904 87.2987C41.8304 86.5439 42.2462 85.5202 42.2462 84.4528V59.3258C42.2462 58.2584 41.8304 57.2346 41.0904 56.4798C40.3504 55.725 39.3467 55.301 38.3001 55.301Z" fill="white"/>
<path d="M125.74 96H4.94437C4.35935 96.0106 3.77802 95.9034 3.2337 95.6845C2.68938 95.4656 2.19275 95.1393 1.77229 94.7243C1.35183 94.3093 1.0158 93.8137 0.783455 93.266C0.551107 92.7183 0.42701 92.1292 0.418278 91.5324L0.0236755 58.1667C-0.370927 52.2099 4.60501 49.2799 7.12652 49.3121H29.6188L29.2242 16.711C29.2242 12.3481 28.8296 7.85643 38.6947 7.05147H66.3169C76.5528 6.64899 73.7551 15.6807 73.7551 20.3696L73.3605 51.5539C73.3605 53.5381 72.8751 53.5381 75.373 53.5381H126.139C130.724 53.5381 133.794 53.3892 133.794 57.901L133.399 92.0235C133.399 96.4025 130.187 96 125.74 96Z" fill="#EFEFEF"/>
<path d="M131.229 93.3275H94.9255C93.879 93.3275 92.8753 92.9035 92.1353 92.1487C91.3952 91.3939 90.9795 90.3702 90.9795 89.3027V54.3431C90.9795 53.2757 91.3952 52.2519 92.1353 51.4971C92.8753 50.7423 93.879 50.3183 94.9255 50.3183H131.229C132.275 50.3183 133.279 50.7423 134.019 51.4971C134.759 52.2519 135.175 53.2757 135.175 54.3431V89.3027C135.175 90.3702 134.759 91.3939 134.019 92.1487C133.279 92.9035 132.275 93.3275 131.229 93.3275Z" fill="#797979"/>
<path d="M92.329 51.3269C93.0499 50.6866 93.9706 50.3303 94.9255 50.3223H131.229C132.275 50.3223 133.279 50.7474 134.019 51.504C134.759 52.2607 135.175 53.287 135.175 54.357V89.4027C135.147 90.4524 134.747 91.456 134.05 92.2271L92.329 51.3269Z" fill="#B9B9B9"/>
<g filter="url(#filter0_f_6_705)">
<path d="M125.038 55.5063H100.403C98.3322 55.5063 96.6539 57.2181 96.6539 59.3298V84.4568C96.6539 86.5685 98.3322 88.2804 100.403 88.2804H125.038C127.108 88.2804 128.786 86.5685 128.786 84.4568V59.3298C128.786 57.2181 127.108 55.5063 125.038 55.5063Z" fill="#989898"/>
</g>
<g filter="url(#filter1_f_6_705)">
<path d="M102.752 73.5384V58.2842H107.87C110.023 58.2842 111.699 59.018 112.899 60.4857C114.098 61.9534 114.698 63.7489 114.698 65.8722C114.698 68.0253 114.113 69.8431 112.943 71.3257C111.774 72.8008 110.291 73.5384 108.496 73.5384H102.752ZM104.663 71.918H107.758C109.397 71.918 110.641 71.3518 111.491 70.2193C112.34 69.0869 112.765 67.5932 112.765 65.7381C112.765 64.2331 112.359 62.8809 111.547 61.6814C110.742 60.482 109.479 59.8822 107.758 59.8822H104.663V71.918Z" fill="#F1F1F1"/>
</g>
<g filter="url(#filter2_f_6_705)">
<path d="M116.744 81.5328V74.9163H119.83C121.184 74.9163 121.86 75.4491 121.86 76.5147C121.86 77.2309 121.483 77.7266 120.727 78.0018C121.657 78.2638 122.123 78.8294 122.123 79.6985C122.123 80.2444 121.961 80.6877 121.638 81.0283C121.319 81.3646 120.876 81.5328 120.308 81.5328H116.744ZM117.773 77.6677H119.83C120.48 77.6677 120.806 77.3314 120.806 76.6588C120.806 76.0343 120.48 75.722 119.83 75.722H117.773V77.6677ZM117.773 80.727H119.83C120.607 80.727 120.996 80.3536 120.996 79.6068C120.996 78.8338 120.607 78.4472 119.83 78.4472H117.773V80.727Z" fill="#F1F1F1"/>
</g>
<path d="M87.0335 93.3275H50.7301C49.6835 93.3275 48.6798 92.9035 47.9398 92.1487C47.1998 91.3939 46.7841 90.3702 46.7841 89.3027V54.3431C46.7841 53.2757 47.1998 52.2519 47.9398 51.4971C48.6798 50.7423 49.6835 50.3183 50.7301 50.3183H87.0335C88.08 50.3183 89.0837 50.7423 89.8238 51.4971C90.5638 52.2519 90.9795 53.2757 90.9795 54.3431V89.3027C90.9795 90.3702 90.5638 91.3939 89.8238 92.1487C89.0837 92.9035 88.08 93.3275 87.0335 93.3275Z" fill="#797979"/>
<path d="M48.4049 51.2904C49.1212 50.65 50.0362 50.2937 50.9851 50.2857H87.0618C88.1018 50.2857 89.0993 50.7108 89.8347 51.4675C90.5701 52.2241 90.9832 53.2504 90.9832 54.3204V89.3662C90.9556 90.4158 90.5584 91.4195 89.8656 92.1905L48.4049 51.2904Z" fill="#B9B9B9"/>
<g filter="url(#filter3_f_6_705)">
<path d="M80.8422 55.5063H56.2072C54.1368 55.5063 52.4584 57.2181 52.4584 59.3298V84.4568C52.4584 86.5685 54.1368 88.2804 56.2072 88.2804H80.8422C82.9125 88.2804 84.5909 86.5685 84.5909 84.4568V59.3298C84.5909 57.2181 82.9125 55.5063 80.8422 55.5063Z" fill="#989898"/>
</g>
<g filter="url(#filter4_f_6_705)">
<path d="M56.0906 69.4818L57.8116 69.0906C58.5045 71.1692 60.0057 72.2085 62.3152 72.2085C63.5222 72.2085 64.4311 71.9552 65.042 71.4486C65.6529 70.9346 65.9584 70.2491 65.9584 69.3924C65.9584 68.7442 65.7237 68.2227 65.2543 67.8278C64.7924 67.433 64.256 67.161 63.6451 67.012L60.5942 66.2521C59.8045 66.051 59.1564 65.8088 58.6497 65.5257C58.1506 65.2352 57.7259 64.7919 57.3758 64.1959C57.0256 63.5999 56.8505 62.9182 56.8505 62.1508C56.8505 60.8768 57.3311 59.8636 58.2921 59.1111C59.2532 58.3512 60.4862 57.9713 61.9911 57.9713C64.7626 57.9713 66.5842 59.2266 67.4558 61.7373L65.7237 62.2514C65.5225 61.3574 65.0494 60.6831 64.3044 60.2287C63.5594 59.7667 62.766 59.5358 61.9241 59.5358C61.0897 59.5358 60.3447 59.7556 59.689 60.1951C59.0409 60.6347 58.7168 61.2568 58.7168 62.0614C58.7168 63.1864 59.5438 63.9463 61.1977 64.3412L64.0474 65.0228C66.655 65.6487 67.9587 67.053 67.9587 69.2359C67.9587 70.5546 67.467 71.6535 66.4836 72.5326C65.5076 73.4043 64.1293 73.8401 62.3488 73.8401C59.1899 73.8401 57.1038 72.3873 56.0906 69.4818Z" fill="#F1F1F1"/>
</g>
<g filter="url(#filter5_f_6_705)">
<path d="M70.9702 81.7099V75.0933H71.9987V77.6417H73.9641C74.6497 77.6417 75.1629 77.847 75.5035 78.2575C75.8486 78.6636 76.0211 79.1724 76.0211 79.7839C76.0211 80.3866 75.8355 80.8582 75.4642 81.1989C75.093 81.5395 74.593 81.7099 73.9641 81.7099H70.9702ZM71.9987 80.9041H73.7348C74.5078 80.9041 74.8943 80.5241 74.8943 79.7642C74.8943 78.8864 74.5078 78.4475 73.7348 78.4475H71.9987V80.9041ZM76.9513 81.7099V75.0933H77.9798V81.7099H76.9513Z" fill="#F1F1F1"/>
</g>
<path d="M42.838 93.3275H6.53458C5.48803 93.3275 4.48435 92.9035 3.74433 92.1487C3.0043 91.3939 2.58856 90.3702 2.58856 89.3027V54.3431C2.58856 53.2757 3.0043 52.2519 3.74433 51.4971C4.48435 50.7423 5.48803 50.3183 6.53458 50.3183H42.838C43.8845 50.3183 44.8882 50.7423 45.6283 51.4971C46.3683 52.2519 46.784 53.2757 46.784 54.3431V89.3027C46.784 90.3702 46.3683 91.3939 45.6283 92.1487C44.8882 92.9035 43.8845 93.3275 42.838 93.3275Z" fill="#797979"/>
<path d="M4.03375 51.2904C4.75011 50.65 5.66509 50.2937 6.61402 50.2857H42.6907C43.7307 50.2857 44.7281 50.7108 45.4635 51.4675C46.1989 52.2241 46.6121 53.2504 46.6121 54.3204V89.3662C46.5844 90.4158 46.1873 91.4195 45.4945 92.1905L4.03375 51.2904Z" fill="#B9B9B9"/>
<g filter="url(#filter6_f_6_705)">
<path d="M36.6467 55.5063H12.0117C9.94136 55.5063 8.263 57.2181 8.263 59.3298V84.4568C8.263 86.5685 9.94136 88.2804 12.0117 88.2804H36.6467C38.7171 88.2804 40.3955 86.5685 40.3955 84.4568V59.3298C40.3955 57.2181 38.7171 55.5063 36.6467 55.5063Z" fill="#989898"/>
</g>
<g filter="url(#filter7_f_6_705)">
<path d="M23.8416 73.5384H21.8859L20.3438 69.0795H14.7003L13.3369 73.5384H11.7388L16.6895 58.2842H18.8686L23.8416 73.5384ZM19.9415 67.649L17.5946 60.3181L15.2255 67.649H19.9415Z" fill="#F1F1F1"/>
</g>
<g filter="url(#filter8_f_6_705)">
<path d="M29.4542 83.7667V81.5328C28.4934 81.4629 27.716 81.1201 27.122 80.5043C26.5324 79.8841 26.2376 79.1133 26.2376 78.1918C26.2376 77.2397 26.5412 76.4732 27.1482 75.8924C27.7553 75.3115 28.5239 74.9861 29.4542 74.9163V72.7675H30.3451V74.9163C31.2797 74.9861 32.0484 75.3137 32.6511 75.8989C33.2581 76.4798 33.5617 77.244 33.5617 78.1918C33.5617 79.1133 33.2669 79.8841 32.6773 80.5043C32.0877 81.1201 31.3103 81.4629 30.3451 81.5328V83.7667H29.4542ZM29.4542 75.6893C28.061 75.9295 27.3644 76.7811 27.3644 78.2442C27.3644 79.681 28.061 80.513 29.4542 80.7401V75.6893ZM30.3451 80.7401C31.7383 80.5086 32.4349 79.6701 32.4349 78.2245C32.4349 76.7658 31.7383 75.9207 30.3451 75.6893V80.7401Z" fill="#F1F1F1"/>
</g>
<path d="M72.0386 50.262H35.7351C34.6886 50.262 33.6849 49.8379 32.9449 49.0831C32.2049 48.3283 31.7891 47.3046 31.7891 46.2372V11.2776C31.7891 10.2101 32.2049 9.18639 32.9449 8.43159C33.6849 7.67679 34.6886 7.25275 35.7351 7.25275H72.0386C73.0851 7.25275 74.0888 7.67679 74.8288 8.43159C75.5688 9.18639 75.9846 10.2101 75.9846 11.2776V46.2372C75.9846 47.3046 75.5688 48.3283 74.8288 49.0831C74.0888 49.8379 73.0851 50.262 72.0386 50.262Z" fill="#797979"/>
<path d="M33.6145 8.16405C34.3308 7.52525 35.2458 7.16987 36.1947 7.16187H72.2714C73.3114 7.16187 74.3089 7.58591 75.0443 8.34071C75.7797 9.09551 76.1928 10.1192 76.1928 11.1867V46.1463C76.1652 47.1934 75.768 48.1945 75.0752 48.9636L33.6145 8.16405Z" fill="#B9B9B9"/>
<g filter="url(#filter9_f_6_705)">
<path d="M65.8473 12.4407H41.2123C39.142 12.4407 37.4636 14.1526 37.4636 16.2643V41.3912C37.4636 43.5029 39.142 45.2148 41.2123 45.2148H65.8473C67.9177 45.2148 69.5961 43.5029 69.5961 41.3912V16.2643C69.5961 14.1526 67.9177 12.4407 65.8473 12.4407Z" fill="#989898"/>
</g>
<g filter="url(#filter10_f_6_705)">
<path d="M58.738 15.6211L55.0614 30.8753H53.1504L49.8202 19.0407L46.7246 30.8753H44.769L40.9023 15.6211H42.8803L45.9312 27.9809L49.172 15.6211H50.7142L54.2121 27.9809L57.0618 15.6211H58.738Z" fill="#F1F1F1"/>
</g>
<g filter="url(#filter11_f_6_705)">
<path d="M58.6459 38.0647V31.4482H59.6744V37.259H62.5699V31.4482H63.5984V37.259H64.5811V39.5846H63.8212L63.6901 38.0647H58.6459Z" fill="#F1F1F1"/>
</g>
<path d="M94.1324 6.79795L91.1768 7.85648C90.937 6.91014 90.4628 6.04254 89.7997 5.33694C89.1527 4.76998 88.3152 4.48138 87.4636 4.53198C87.0728 4.50739 86.6814 4.56868 86.3158 4.71172C85.9502 4.85476 85.619 5.07621 85.3446 5.36109C84.8613 5.87033 84.5923 6.55206 84.5949 7.2608C84.5814 7.61985 84.6504 7.97714 84.7963 8.30417C84.9423 8.63121 85.1611 8.91894 85.4354 9.14442C85.9957 9.61532 87.1124 10.1707 88.7895 10.8228C89.9369 11.2409 91.0418 11.772 92.0884 12.4085C92.9005 12.9383 93.5653 13.6724 94.0187 14.5401C94.472 15.4079 94.6987 16.3801 94.6769 17.3631C94.6854 18.2181 94.5217 19.0658 94.1958 19.8537C93.87 20.6415 93.3891 21.3528 92.7829 21.9433C91.5359 23.2152 89.7865 23.8498 87.5346 23.8471C83.6518 23.8471 81.2473 21.8454 80.3213 17.8421L83.4347 16.9445C83.9793 19.5902 85.3972 20.9117 87.6885 20.909C88.8092 20.909 89.6602 20.6125 90.2416 20.0195C90.5255 19.7337 90.749 19.3917 90.8983 19.0144C91.0477 18.6371 91.1196 18.2327 91.1097 17.826C91.11 17.1826 90.8988 16.5576 90.5099 16.051C90.1153 15.5036 89.1131 14.9241 87.5189 14.3042C86.2627 13.8533 85.0435 13.3015 83.8727 12.6541C83.0431 12.1248 82.3604 11.3873 81.89 10.5121C81.4195 9.63693 81.1769 8.6533 81.1855 7.65524C81.1682 6.85241 81.3147 6.05469 81.6156 5.31264C81.9165 4.5706 82.3653 3.90044 82.9336 3.34466C84.1016 2.18014 85.6511 1.59922 87.582 1.60191C91.0045 1.60727 93.188 3.33929 94.1324 6.79795Z" fill="#8A8989"/>
<path d="M100.916 5.44156H97.5378V1.97217H100.916V5.44156ZM97.6167 7.57874H100.821V23.4607H97.6167V7.57874Z" fill="#8A8989"/>
<path d="M104.613 7.58278H107.573V9.99767C108.335 8.11943 109.614 7.1803 111.408 7.1803C113.378 7.1803 114.562 8.16638 114.959 10.1385C115.691 8.16638 117.006 7.1803 118.905 7.1803C119.738 7.14935 120.562 7.36911 121.273 7.8122C121.883 8.20164 122.347 8.78833 122.591 9.47847C122.836 10.1707 122.962 11.4909 122.962 13.3906V23.4526H119.754V13.6965C119.754 12.1993 119.628 11.181 119.359 10.6497C119.091 10.1184 118.598 9.84473 117.836 9.84473C116.208 9.84473 115.394 11.2843 115.394 14.1634V23.4607H112.185V13.8011C112.221 12.911 112.166 12.0196 112.024 11.1407C111.934 10.7634 111.723 10.4276 111.424 10.1868C111.095 9.94665 110.696 9.82618 110.291 9.84473C109.91 9.81379 109.528 9.89379 109.189 10.0754C108.85 10.2571 108.569 10.533 108.378 10.8711C107.999 11.558 107.809 12.6809 107.809 14.2398V23.4567H104.601L104.613 7.58278Z" fill="#8A8989"/>
<path d="M126.655 7.58279H129.615V10.1949C130.404 8.27506 131.71 7.31715 133.462 7.31715C134.218 7.30805 134.964 7.49585 135.629 7.86279C136.294 8.22973 136.856 8.76367 137.262 9.41408C138.23 10.8147 138.713 12.8097 138.711 15.399C138.772 17.4504 138.32 19.4839 137.397 21.3074C137.021 22.0722 136.436 22.7095 135.712 23.1424C134.989 23.5752 134.158 23.785 133.32 23.7465C132.625 23.768 131.937 23.5999 131.326 23.2596C130.716 22.9193 130.206 22.4191 129.848 21.8105V28.8379H126.64L126.655 7.58279ZM129.848 16.8197C129.825 17.6189 129.899 18.4179 130.069 19.1984C130.219 19.7678 130.537 20.2763 130.98 20.6554C131.413 21.0525 131.977 21.2694 132.559 21.2632C134.379 21.2632 135.289 19.3057 135.289 15.3909C135.289 11.5996 134.4 9.70387 132.622 9.70387C132.223 9.70979 131.832 9.8198 131.487 10.0234C131.142 10.227 130.853 10.5175 130.649 10.867C130.12 11.6438 129.86 12.7466 129.86 14.1795L129.848 16.8197Z" fill="#8A8989"/>
<path d="M141.733 2.00034H144.937V23.4607H141.733V2.00034Z" fill="#8A8989"/>
<path d="M160.027 16.0107H151.227C151.227 18.1573 151.511 19.5861 152.08 20.2972C152.329 20.6352 152.653 20.9086 153.025 21.0953C153.398 21.2819 153.808 21.3767 154.222 21.3718C155.659 21.3718 156.566 20.3871 156.945 18.4176L159.889 18.8201C159.121 22.1848 157.199 23.8672 154.124 23.8672C153.269 23.9025 152.417 23.7348 151.637 23.3772C150.856 23.0196 150.167 22.4819 149.625 21.8065C148.505 20.4354 147.944 18.4229 147.944 15.7692C147.944 13.0458 148.509 10.9395 149.637 9.45028C150.161 8.73346 150.847 8.15612 151.636 7.76725C152.425 7.37838 153.295 7.18945 154.171 7.2165C155.381 7.17818 156.565 7.57417 157.517 8.3354C158.433 9.08733 159.105 10.1047 159.443 11.2534C159.853 12.804 160.049 14.405 160.027 16.0107ZM156.744 13.7931C156.744 10.9945 155.851 9.59517 154.065 9.59517C152.389 9.59517 151.468 10.9945 151.302 13.7931H156.744Z" fill="#8A8989"/>
<path d="M88.754 33.728H95.7818V44.8848H93.939L93.4734 42.164C92.4211 44.1362 90.7349 45.1223 88.4146 45.1223C87.3256 45.1606 86.2453 44.9123 85.2777 44.4012C84.3101 43.8902 83.4879 43.1335 82.8902 42.2043C81.5748 40.2589 80.9172 37.62 80.9172 34.2875C80.9172 30.7805 81.5748 28.0074 82.8902 25.9682C84.2055 23.9289 86.2154 22.9039 88.9197 22.8932C92.6974 22.8932 94.9558 25.0733 95.695 29.4335L92.5382 30.2385C92.1673 28.3924 91.6701 27.1971 91.0466 26.6524C90.4287 26.1167 89.6398 25.8303 88.829 25.8474C86.0089 25.8474 84.5988 28.5668 84.5988 34.0057C84.5988 39.4446 86.0457 42.1801 88.9394 42.2123C91.3334 42.2123 92.5316 40.3421 92.5343 36.6017H88.7737L88.754 33.728Z" fill="#8A8989"/>
<path d="M102.131 33.3497L99.0333 32.9472C99.1097 32.2911 99.3197 31.6585 99.65 31.0901C99.9803 30.5217 100.423 30.0301 100.951 29.6468C102.11 28.8348 103.492 28.4216 104.897 28.4676C106.073 28.4072 107.239 28.7057 108.247 29.3248C108.999 29.7846 109.561 30.5089 109.826 31.3614C110.079 32.5317 110.188 33.7296 110.149 34.9274V40.3368C110.149 42.5289 110.241 43.9913 110.425 44.7238H107.387C107.232 43.8531 107.165 42.9682 107.19 42.0835C106.216 44.104 104.759 45.1156 102.818 45.1182C102.236 45.145 101.656 45.0491 101.113 44.8365C100.57 44.6239 100.075 44.2991 99.6607 43.8826C99.2524 43.433 98.9371 42.904 98.7337 42.3272C98.5303 41.7505 98.443 41.1379 98.4769 40.5259C98.4424 39.7543 98.5803 38.9848 98.8805 38.2756C99.1806 37.5665 99.635 36.9362 100.209 36.4327C101.372 35.4265 103.391 34.9234 106.266 34.9234H106.941V34.2794C106.994 33.3968 106.822 32.5152 106.444 31.7196C106.109 31.14 105.513 30.8543 104.652 30.8543C103.248 30.8623 102.407 31.6941 102.131 33.3497ZM106.961 36.9962C106.551 36.9559 106.239 36.9358 106.026 36.9358C103.237 36.9358 101.843 38.052 101.843 40.2844C101.843 41.8944 102.535 42.706 103.919 42.7194C104.729 42.7194 105.438 42.2794 106.045 41.3993C106.653 40.5192 106.958 39.3118 106.961 37.777V36.9962Z" fill="#8A8989"/>
<path d="M113.756 28.8539H116.715V31.2688C117.473 29.404 118.75 28.4649 120.547 28.4514C122.52 28.4514 123.704 29.4362 124.098 31.4057C124.825 29.4375 126.143 28.4514 128.044 28.4514C128.877 28.4198 129.7 28.6381 130.412 29.0793C131.021 29.469 131.483 30.0557 131.726 30.7456C131.973 31.4379 132.097 32.7432 132.097 34.6617V44.7238H128.893V34.9636C128.893 33.4664 128.761 32.4508 128.498 31.9168C128.246 31.3855 127.737 31.1118 126.971 31.1118C125.345 31.1118 124.531 32.5514 124.529 35.4305V44.7278H121.324V35.0682C121.361 34.1783 121.308 33.2869 121.167 32.4078C121.073 32.032 120.861 31.6981 120.563 31.458C120.234 31.2164 119.835 31.0945 119.43 31.1118C119.049 31.0806 118.667 31.161 118.328 31.3434C117.99 31.5259 117.71 31.803 117.52 32.1422C117.136 32.8264 116.946 33.9493 116.948 35.511V44.7278H113.744L113.756 28.8539Z" fill="#8A8989"/>
<path d="M147.112 37.2779H138.308C138.308 39.4244 138.594 40.8546 139.164 41.5683C139.414 41.9058 139.738 42.1786 140.11 42.3646C140.483 42.5506 140.893 42.6446 141.307 42.6389C142.743 42.6389 143.647 41.6569 144.03 39.6847L146.974 40.0872C146.2 43.4519 144.278 45.1343 141.208 45.1343C140.353 45.1675 139.502 44.9988 138.721 44.6414C137.94 44.2839 137.25 43.7474 136.706 43.0736C135.585 41.7025 135.025 39.6901 135.025 37.0364C135.025 34.3102 135.591 32.2039 136.722 30.7174C137.244 30.0002 137.929 29.4224 138.718 29.0335C139.507 28.6445 140.376 28.4559 141.252 28.4836C142.46 28.4408 143.644 28.8326 144.598 29.5905C145.512 30.3482 146.178 31.3716 146.508 32.5246C146.924 34.0728 147.128 35.6725 147.112 37.2779ZM143.829 35.0642C143.829 32.2629 142.934 30.8636 141.145 30.8663C139.472 30.8663 138.549 32.2629 138.383 35.0642H143.829Z" fill="#8A8989"/>
<path d="M159.151 32.5648L156.637 33.2531C156.177 31.6646 155.298 30.869 154.001 30.8663C153.736 30.8547 153.472 30.8986 153.224 30.9956C152.976 31.0925 152.751 31.2403 152.561 31.4298C152.381 31.6131 152.24 31.8319 152.146 32.0726C152.051 32.3134 152.006 32.5713 152.013 32.8305C151.992 33.0897 152.031 33.3503 152.128 33.5909C152.224 33.8316 152.376 34.0455 152.569 34.215C152.937 34.5101 153.784 34.8764 155.11 35.3138C156.744 35.8692 157.928 36.4957 158.662 37.1934C159.032 37.5757 159.319 38.033 159.504 38.5357C159.69 39.0383 159.77 39.5751 159.739 40.1114C159.749 40.7829 159.617 41.4488 159.35 42.063C159.084 42.6773 158.69 43.2253 158.196 43.6693C157.17 44.6379 155.784 45.1236 154.037 45.1263C150.738 45.1263 148.868 43.5848 148.426 40.5018L151.152 39.9826C151.502 41.8071 152.494 42.7194 154.128 42.7194C154.463 42.7469 154.8 42.7055 155.119 42.5977C155.439 42.4898 155.733 42.3177 155.986 42.0916C156.182 41.8977 156.336 41.6654 156.441 41.4087C156.545 41.152 156.597 40.8763 156.594 40.5984C156.584 40.1675 156.439 39.7514 156.18 39.411C155.899 39.0086 155.126 38.6061 153.851 38.2036C152.9 37.9169 151.975 37.5438 151.089 37.0887C150.458 36.7329 149.929 36.2155 149.554 35.5875C149.151 34.9186 148.943 34.1467 148.954 33.3617C148.939 32.7154 149.057 32.073 149.3 31.476C149.543 30.8791 149.907 30.3409 150.367 29.8964C150.868 29.4187 151.457 29.0472 152.1 28.8033C152.743 28.5594 153.427 28.448 154.112 28.4756C156.722 28.4756 158.401 29.8387 159.151 32.5648Z" fill="#8A8989"/>
<path d="M96.1054 5.18817L93.1498 6.2467C92.91 5.30036 92.4358 4.43276 91.7726 3.72716C91.1256 3.1602 90.2881 2.8716 89.4366 2.9222C89.0458 2.8976 88.6543 2.9589 88.2888 3.10194C87.9232 3.24498 87.592 3.46643 87.3176 3.75131C86.8343 4.26055 86.5652 4.94228 86.5678 5.65102C86.5544 6.01007 86.6234 6.36736 86.7693 6.69439C86.9152 7.02142 87.134 7.30916 87.4083 7.53464C87.9687 8.00554 89.0854 8.56097 90.7624 9.21299C91.9099 9.63117 93.0147 10.1623 94.0613 10.7988C94.8735 11.3285 95.5383 12.0626 95.9916 12.9303C96.445 13.7981 96.6717 14.7703 96.6499 15.7533C96.6584 16.6084 96.4946 17.456 96.1688 18.2439C95.843 19.0318 95.3621 19.743 94.7558 20.3336C93.5089 21.6054 91.7595 22.24 89.5076 22.2373C85.6247 22.2373 83.2203 20.2356 82.2943 16.2323L85.4077 15.3347C85.9522 17.9777 87.3702 19.2992 89.6615 19.2992C90.7822 19.2992 91.6332 19.0027 92.2146 18.4097C92.4985 18.1239 92.722 17.7819 92.8713 17.4046C93.0206 17.0274 93.0926 16.6229 93.0827 16.2162C93.0829 15.5728 92.8718 14.9479 92.4829 14.4412C92.0883 13.8939 91.086 13.3143 89.4918 12.6945C88.2356 12.2435 87.0164 11.6917 85.8457 11.0443C85.0161 10.515 84.3334 9.7775 83.8629 8.90232C83.3924 8.02715 83.1499 7.04352 83.1585 6.04546C83.1412 5.24263 83.2876 4.44491 83.5885 3.70286C83.8895 2.96082 84.3383 2.29066 84.9065 1.73487C86.0746 0.573043 87.624 -0.00787354 89.555 -0.00787354C92.9775 -0.00250711 95.1609 1.72951 96.1054 5.18817Z" fill="white"/>
<path d="M102.889 3.83161H99.5108V0.362213H102.889V3.83161ZM99.5897 5.96879H102.794V21.8507H99.5897V5.96879Z" fill="white"/>
<path d="M106.586 5.97283H109.546V8.38772C110.308 6.50947 111.587 5.57035 113.381 5.57035C115.351 5.57035 116.535 6.55643 116.932 8.52859C117.664 6.55643 118.979 5.57035 120.879 5.57035C121.711 5.5394 122.535 5.75916 123.246 6.20224C123.856 6.59169 124.32 7.17838 124.564 7.86852C124.809 8.56079 124.935 9.88093 124.935 11.7806V21.8427H121.727V12.0865C121.727 10.5893 121.601 9.57102 121.332 9.03974C121.064 8.50846 120.571 8.23478 119.809 8.23478C118.181 8.23478 117.367 9.67432 117.367 12.5534V21.8507H114.158V12.1912C114.194 11.3011 114.139 10.4096 113.997 9.53077C113.907 9.15341 113.696 8.81761 113.397 8.57689C113.068 8.3367 112.669 8.21622 112.264 8.23478C111.883 8.20384 111.501 8.28383 111.162 8.46549C110.823 8.64714 110.542 8.92301 110.351 9.26111C109.972 9.94801 109.782 11.0709 109.782 12.6299V21.8467H106.574L106.586 5.97283Z" fill="white"/>
<path d="M128.629 5.97283H131.588V8.58494C132.377 6.6651 133.683 5.70719 135.435 5.70719C136.191 5.69809 136.937 5.8859 137.602 6.25284C138.267 6.61978 138.829 7.15372 139.235 7.80413C140.204 9.20476 140.686 11.1997 140.684 13.789C140.745 15.8404 140.293 17.8739 139.37 19.6975C138.994 20.4622 138.409 21.0996 137.685 21.5324C136.962 21.9653 136.131 22.1751 135.293 22.1365C134.598 22.158 133.91 21.9899 133.299 21.6496C132.689 21.3093 132.179 20.8091 131.821 20.2006V27.2279H128.613L128.629 5.97283ZM131.837 15.2299C131.814 16.0291 131.888 16.8281 132.058 17.6086C132.208 18.1779 132.526 18.6865 132.969 19.0656C133.402 19.4627 133.965 19.6795 134.548 19.6733C136.368 19.6733 137.278 17.7159 137.278 13.8011C137.278 10.0097 136.389 8.11404 134.611 8.11404C134.212 8.11996 133.821 8.22997 133.476 8.43359C133.13 8.6372 132.842 8.92763 132.638 9.27721C132.109 10.054 131.848 11.1568 131.848 12.5896L131.837 15.2299Z" fill="white"/>
<path d="M143.706 0.390381H146.91V21.8507H143.706V0.390381Z" fill="white"/>
<path d="M162 14.4008H153.2C153.2 16.5474 153.485 17.9762 154.053 18.6872C154.302 19.0253 154.626 19.2986 154.998 19.4853C155.371 19.672 155.781 19.7667 156.195 19.7619C157.632 19.7619 158.539 18.7771 158.918 16.8077L161.862 17.2101C161.094 20.5749 159.172 22.2573 156.097 22.2573C155.242 22.2926 154.39 22.1249 153.61 21.7673C152.829 21.4097 152.14 20.872 151.598 20.1966C150.478 18.8254 149.917 16.813 149.917 14.1593C149.917 11.4332 150.482 9.32685 151.61 7.84035C152.134 7.12354 152.82 6.5462 153.609 6.15733C154.398 5.76845 155.268 5.57953 156.144 5.60658C157.354 5.56826 158.538 5.96425 159.49 6.72548C160.406 7.4774 161.078 8.49473 161.416 9.64347C161.826 11.1941 162.022 12.7951 162 14.4008ZM158.717 12.1831C158.717 9.38454 157.824 7.98525 156.038 7.98525C154.362 7.98525 153.441 9.38454 153.275 12.1831H158.717Z" fill="white"/>
<path d="M90.7269 32.1181H97.7548V43.2749H95.912L95.4464 40.5541C94.3941 42.5263 92.7078 43.5123 90.3876 43.5123C89.2986 43.5507 88.2183 43.3024 87.2507 42.7913C86.2831 42.2802 85.4608 41.5236 84.8631 40.5943C83.5478 38.649 82.8901 36.0101 82.8901 32.6775C82.8901 29.1706 83.5478 26.3975 84.8631 24.3582C86.1785 22.319 88.1883 21.294 90.8927 21.2833C94.6703 21.2833 96.9288 23.4634 97.668 27.8236L94.5112 28.6286C94.1402 26.7825 93.643 25.5871 93.0196 25.0424C92.4016 24.5068 91.6127 24.2204 90.8019 24.2375C87.9818 24.2375 86.5718 26.9569 86.5718 32.3958C86.5718 37.8347 88.0187 40.5702 90.9124 40.6024C93.309 40.6024 94.5072 38.7322 94.5072 34.9918H90.7467L90.7269 32.1181Z" fill="white"/>
<path d="M104.104 31.7397L101.006 31.3372C101.083 30.6811 101.293 30.0486 101.623 29.4802C101.953 28.9118 102.396 28.4202 102.924 28.0369C104.083 27.2248 105.465 26.8116 106.87 26.8576C108.046 26.7973 109.212 27.0958 110.22 27.7149C110.972 28.1747 111.534 28.899 111.799 29.7515C112.052 30.9217 112.161 32.1197 112.122 33.3174V38.7268C112.122 40.9217 112.214 42.384 112.399 43.1139H109.36C109.205 42.2431 109.138 41.3583 109.163 40.4736C108.189 42.494 106.732 43.5056 104.791 43.5083C104.209 43.5351 103.629 43.4391 103.086 43.2265C102.543 43.0139 102.048 42.6892 101.634 42.2727C101.225 41.823 100.91 41.294 100.707 40.7173C100.503 40.1405 100.416 39.5279 100.45 38.916C100.415 38.1444 100.553 37.3748 100.853 36.6657C101.154 35.9565 101.608 35.3263 102.182 34.8227C103.345 33.8165 105.364 33.3134 108.239 33.3134H108.914V32.6694C108.967 31.7868 108.795 30.9053 108.417 30.1097C108.082 29.5301 107.486 29.2443 106.625 29.2443C105.221 29.2524 104.38 30.0842 104.104 31.7397ZM108.934 35.3862C108.524 35.346 108.212 35.3258 107.999 35.3258C105.21 35.3258 103.816 36.442 103.816 38.6745C103.816 40.2844 104.508 41.0961 105.892 41.1095C106.702 41.1095 107.411 40.6694 108.018 39.7894C108.626 38.9093 108.931 37.7018 108.934 36.167V35.3862Z" fill="white"/>
<path d="M115.729 27.244H118.688V29.6589C119.446 27.7941 120.723 26.8549 122.52 26.8415C124.493 26.8415 125.677 27.8263 126.071 29.7957C126.798 27.8276 128.115 26.8415 130.017 26.8415C130.85 26.8098 131.673 27.0282 132.385 27.4694C132.994 27.859 133.456 28.4458 133.699 29.1357C133.946 29.8279 134.07 31.1333 134.07 33.0518V43.1139H130.866V33.3537C130.866 31.8564 130.734 30.8408 130.471 30.3069C130.219 29.7756 129.71 29.5019 128.944 29.5019C127.318 29.5019 126.504 30.9415 126.502 33.8206V43.1179H123.297V33.4583C123.334 32.5684 123.281 31.6769 123.14 30.7979C123.046 30.4221 122.834 30.0882 122.536 29.8481C122.207 29.6064 121.808 29.4845 121.403 29.5019C121.022 29.4707 120.64 29.551 120.301 29.7335C119.963 29.916 119.683 30.1931 119.493 30.5323C119.109 31.2165 118.919 32.3394 118.921 33.9011V43.1179H115.717L115.729 27.244Z" fill="white"/>
<path d="M149.085 35.6679H140.281C140.281 37.8145 140.567 39.2447 141.137 39.9584C141.387 40.2959 141.711 40.5687 142.083 40.7547C142.456 40.9407 142.866 41.0347 143.28 41.029C144.716 41.029 145.62 40.047 146.003 38.0748L148.947 38.4773C148.173 41.842 146.251 43.5244 143.181 43.5244C142.326 43.5576 141.475 43.3889 140.694 43.0315C139.913 42.674 139.223 42.1375 138.679 41.4637C137.558 40.0926 136.998 38.0802 136.998 35.4265C136.998 32.7003 137.564 30.594 138.695 29.1075C139.217 28.3902 139.902 27.8125 140.691 27.4236C141.48 27.0346 142.349 26.846 143.225 26.8737C144.433 26.8309 145.617 27.2227 146.571 27.9805C147.485 28.7383 148.151 29.7616 148.481 30.9146C148.897 32.4628 149.101 34.0626 149.085 35.6679ZM145.802 33.4543C145.802 30.653 144.907 29.2537 143.118 29.2564C141.445 29.2564 140.522 30.653 140.356 33.4543H145.802Z" fill="white"/>
<path d="M161.124 30.9549L158.61 31.6431C158.15 30.0547 157.271 29.2591 155.974 29.2564C155.709 29.2447 155.445 29.2887 155.197 29.3856C154.949 29.4826 154.724 29.6304 154.534 29.8199C154.354 30.0032 154.213 30.2219 154.119 30.4627C154.024 30.7035 153.979 30.9613 153.986 31.2205C153.965 31.4797 154.004 31.7403 154.101 31.981C154.197 32.2217 154.349 32.4355 154.542 32.6051C154.91 32.9002 155.757 33.2665 157.083 33.7038C158.717 34.2593 159.901 34.8858 160.635 35.5834C161.005 35.9658 161.292 36.4231 161.477 36.9257C161.663 37.4284 161.743 37.9652 161.712 38.5014C161.722 39.173 161.59 39.8389 161.323 40.4531C161.057 41.0674 160.663 41.6154 160.169 42.0594C159.143 43.028 157.757 43.5137 156.01 43.5164C152.711 43.5164 150.841 41.9748 150.399 38.8918L153.125 38.3726C153.475 40.1972 154.467 41.1095 156.101 41.1095C156.436 41.137 156.773 41.0956 157.092 40.9877C157.412 40.8799 157.706 40.7078 157.959 40.4816C158.155 40.2878 158.309 40.0555 158.414 39.7988C158.518 39.5421 158.57 39.2664 158.567 38.9884C158.557 38.5576 158.412 38.1414 158.153 37.8011C157.872 37.3986 157.099 36.9961 155.824 36.5937C154.873 36.307 153.948 35.9339 153.062 35.4788C152.431 35.123 151.902 34.6055 151.527 33.9775C151.124 33.3087 150.916 32.5367 150.927 31.7518C150.912 31.1055 151.03 30.4631 151.273 29.8661C151.516 29.2691 151.88 28.731 152.34 28.2864C152.841 27.8088 153.43 27.4373 154.073 27.1934C154.716 26.9495 155.4 26.8381 156.085 26.8657C158.695 26.8657 160.374 28.2287 161.124 30.9549Z" fill="white"/>
</g>
<defs>
<filter id="filter0_f_6_705" x="95.6539" y="54.5063" width="34.1324" height="34.7741" filterUnits="userSpaceOnUse" color-interpolation-filters="sRGB">
<feFlood flood-opacity="0" result="BackgroundImageFix"/>
<feBlend mode="normal" in="SourceGraphic" in2="BackgroundImageFix" result="shape"/>
<feGaussianBlur stdDeviation="0.5" result="effect1_foregroundBlur_6_705"/>
</filter>
<filter id="filter1_f_6_705" x="101.752" y="57.2841" width="13.9464" height="17.2542" filterUnits="userSpaceOnUse" color-interpolation-filters="sRGB">
<feFlood flood-opacity="0" result="BackgroundImageFix"/>
<feBlend mode="normal" in="SourceGraphic" in2="BackgroundImageFix" result="shape"/>
<feGaussianBlur stdDeviation="0.5" result="effect1_foregroundBlur_6_705"/>
</filter>
<filter id="filter2_f_6_705" x="115.744" y="73.9163" width="7.37839" height="8.61652" filterUnits="userSpaceOnUse" color-interpolation-filters="sRGB">
<feFlood flood-opacity="0" result="BackgroundImageFix"/>
<feBlend mode="normal" in="SourceGraphic" in2="BackgroundImageFix" result="shape"/>
<feGaussianBlur stdDeviation="0.5" result="effect1_foregroundBlur_6_705"/>
</filter>
<filter id="filter3_f_6_705" x="51.4584" y="54.5063" width="34.1324" height="34.7741" filterUnits="userSpaceOnUse" color-interpolation-filters="sRGB">
<feFlood flood-opacity="0" result="BackgroundImageFix"/>
<feBlend mode="normal" in="SourceGraphic" in2="BackgroundImageFix" result="shape"/>
<feGaussianBlur stdDeviation="0.5" result="effect1_foregroundBlur_6_705"/>
</filter>
<filter id="filter4_f_6_705" x="55.0906" y="56.9713" width="13.8681" height="17.8689" filterUnits="userSpaceOnUse" color-interpolation-filters="sRGB">
<feFlood flood-opacity="0" result="BackgroundImageFix"/>
<feBlend mode="normal" in="SourceGraphic" in2="BackgroundImageFix" result="shape"/>
<feGaussianBlur stdDeviation="0.5" result="effect1_foregroundBlur_6_705"/>
</filter>
<filter id="filter5_f_6_705" x="69.9702" y="74.0934" width="9.00958" height="8.61652" filterUnits="userSpaceOnUse" color-interpolation-filters="sRGB">
<feFlood flood-opacity="0" result="BackgroundImageFix"/>
<feBlend mode="normal" in="SourceGraphic" in2="BackgroundImageFix" result="shape"/>
<feGaussianBlur stdDeviation="0.5" result="effect1_foregroundBlur_6_705"/>
</filter>
<filter id="filter6_f_6_705" x="7.263" y="54.5063" width="34.1324" height="34.7741" filterUnits="userSpaceOnUse" color-interpolation-filters="sRGB">
<feFlood flood-opacity="0" result="BackgroundImageFix"/>
<feBlend mode="normal" in="SourceGraphic" in2="BackgroundImageFix" result="shape"/>
<feGaussianBlur stdDeviation="0.5" result="effect1_foregroundBlur_6_705"/>
</filter>
<filter id="filter7_f_6_705" x="10.7388" y="57.2841" width="14.1028" height="17.2542" filterUnits="userSpaceOnUse" color-interpolation-filters="sRGB">
<feFlood flood-opacity="0" result="BackgroundImageFix"/>
<feBlend mode="normal" in="SourceGraphic" in2="BackgroundImageFix" result="shape"/>
<feGaussianBlur stdDeviation="0.5" result="effect1_foregroundBlur_6_705"/>
</filter>
<filter id="filter8_f_6_705" x="25.2376" y="71.7675" width="9.32404" height="12.9991" filterUnits="userSpaceOnUse" color-interpolation-filters="sRGB">
<feFlood flood-opacity="0" result="BackgroundImageFix"/>
<feBlend mode="normal" in="SourceGraphic" in2="BackgroundImageFix" result="shape"/>
<feGaussianBlur stdDeviation="0.5" result="effect1_foregroundBlur_6_705"/>
</filter>
<filter id="filter9_f_6_705" x="36.4636" y="11.4407" width="34.1324" height="34.7741" filterUnits="userSpaceOnUse" color-interpolation-filters="sRGB">
<feFlood flood-opacity="0" result="BackgroundImageFix"/>
<feBlend mode="normal" in="SourceGraphic" in2="BackgroundImageFix" result="shape"/>
<feGaussianBlur stdDeviation="0.5" result="effect1_foregroundBlur_6_705"/>
</filter>
<filter id="filter10_f_6_705" x="39.9023" y="14.6211" width="19.8357" height="17.2542" filterUnits="userSpaceOnUse" color-interpolation-filters="sRGB">
<feFlood flood-opacity="0" result="BackgroundImageFix"/>
<feBlend mode="normal" in="SourceGraphic" in2="BackgroundImageFix" result="shape"/>
<feGaussianBlur stdDeviation="0.5" result="effect1_foregroundBlur_6_705"/>
</filter>
<filter id="filter11_f_6_705" x="57.6459" y="30.4482" width="7.93521" height="10.1364" filterUnits="userSpaceOnUse" color-interpolation-filters="sRGB">
<feFlood flood-opacity="0" result="BackgroundImageFix"/>
<feBlend mode="normal" in="SourceGraphic" in2="BackgroundImageFix" result="shape"/>
<feGaussianBlur stdDeviation="0.5" result="effect1_foregroundBlur_6_705"/>
</filter>
<clipPath id="clip0_6_705">
<rect width="162" height="96" fill="white"/>
</clipPath>
</defs>
</svg>
