<svg width="55" height="52" viewBox="0 0 55 52" fill="none" xmlns="http://www.w3.org/2000/svg">
<path d="M49.6242 51.9614H5.43236C4.15841 51.9614 2.93663 51.4553 2.0358 50.5545C1.13498 49.6537 0.628906 48.4319 0.628906 47.158V5.43514C0.628906 4.16118 1.13498 2.9394 2.0358 2.03858C2.93663 1.13776 4.15841 0.631683 5.43236 0.631683H49.6242C50.8981 0.631683 52.1199 1.13776 53.0207 2.03858C53.9215 2.9394 54.4276 4.16118 54.4276 5.43514V47.158C54.4276 48.4319 53.9215 49.6537 53.0207 50.5545C52.1199 51.4553 50.8981 51.9614 49.6242 51.9614Z" fill="#7B7B7B"/>
<path d="M2.27173 1.83547C3.14922 1.07122 4.27002 0.64604 5.4324 0.636465H49.6242C50.8982 0.636465 52.1199 1.14379 53.0208 2.04683C53.9216 2.94988 54.4277 4.17466 54.4277 5.45176V47.2774C54.3938 48.5301 53.9073 49.7279 53.0587 50.6481L2.27173 1.83547Z" fill="#AAAAAA"/>
<path d="M42.0875 6.82331H12.0995C9.57931 6.82331 7.53625 8.86636 7.53625 11.3866V41.3746C7.53625 43.8948 9.57931 45.9379 12.0995 45.9379H42.0875C44.6077 45.9379 46.6508 43.8948 46.6508 41.3746V11.3866C46.6508 8.86636 44.6077 6.82331 42.0875 6.82331Z" fill="#8E8E8E"/>
<path d="M26.5497 35.5V21.508C26.0377 21.94 25.2697 22.404 24.2457 22.9V22.06C24.8377 21.548 25.3497 21.028 25.7817 20.5C26.2137 19.972 26.5657 19.436 26.8377 18.892H27.2697C27.5417 19.436 27.8937 19.972 28.3257 20.5C28.7577 21.028 29.2697 21.548 29.8617 22.06V22.9C29.3657 22.66 28.9257 22.428 28.5417 22.204C28.1577 21.964 27.8297 21.732 27.5577 21.508V35.5H26.5497Z" fill="#EDEDED"/>
</svg>
