<svg width="55" height="52" viewBox="0 0 55 52" fill="none" xmlns="http://www.w3.org/2000/svg">
<path d="M49.6242 51.9614H5.43236C4.15841 51.9614 2.93663 51.4553 2.0358 50.5545C1.13498 49.6537 0.628906 48.4319 0.628906 47.158V5.43514C0.628906 4.16118 1.13498 2.9394 2.0358 2.03858C2.93663 1.13776 4.15841 0.631683 5.43236 0.631683H49.6242C50.8981 0.631683 52.1199 1.13776 53.0207 2.03858C53.9215 2.9394 54.4276 4.16118 54.4276 5.43514V47.158C54.4276 48.4319 53.9215 49.6537 53.0207 50.5545C52.1199 51.4553 50.8981 51.9614 49.6242 51.9614Z" fill="#797979"/>
<path d="M2.2717 1.83548C3.14919 1.07123 4.26999 0.646049 5.43237 0.636475H49.6242C50.8981 0.636475 52.1199 1.1438 53.0207 2.04684C53.9216 2.94989 54.4276 4.17467 54.4276 5.45177V47.2774C54.3938 48.5301 53.9073 49.7279 53.0586 50.6481L2.2717 1.83548Z" fill="#B9B9B9"/>
<path d="M42.0876 6.8233H12.0996C9.57937 6.8233 7.53632 8.86635 7.53632 11.3866V41.3746C7.53632 43.8948 9.57937 45.9378 12.0996 45.9378H42.0876C44.6078 45.9378 46.6509 43.8948 46.6509 41.3746V11.3866C46.6509 8.86635 44.6078 6.8233 42.0876 6.8233Z" fill="#989898"/>
<path d="M26.5498 35.5V21.508C26.0378 21.94 25.2698 22.404 24.2458 22.9V22.06C24.8378 21.548 25.3498 21.028 25.7818 20.5C26.2138 19.972 26.5658 19.436 26.8378 18.892H27.2698C27.5418 19.436 27.8938 19.972 28.3258 20.5C28.7578 21.028 29.2698 21.548 29.8618 22.06V22.9C29.3658 22.66 28.9258 22.428 28.5418 22.204C28.1578 21.964 27.8298 21.732 27.5578 21.508V35.5H26.5498Z" fill="white"/>
</svg>
